<svg id="Layer_1" enable-background="new 0 0 470 470" height="512" viewBox="0 0 470 470" width="512" xmlns="http://www.w3.org/2000/svg"><g><g><path d="m411.945 380.123c-58.382 68.268-174.157 115.12-276.889 75.156-73.64-28.646-141.542-102.731-134.56-184.077 4.424-51.552 39.255-109.897 91.474-135.484 41.094-20.136 76.474-11.91 99.003-41.857 19.796-26.315 3.602-47.454 20.408-68.425 26.576-33.162 109.019-32.652 159.379-5.707 99.73 53.359 142.644 241.754 41.185 360.394z" fill="#e6edff"/></g><g><g><g><g><g><path d="m241.195 372.813h-236.195v-334.183c0-18.573 15.057-33.63 33.63-33.63h231.062l-28.497 113.435z" fill="#1fd4af"/></g><g><path d="m56.63 5h-18c-18.573 0-33.63 15.057-33.63 33.63v334.183h18v-334.183c0-18.573 15.057-33.63 33.63-33.63z" fill="#0eaf89"/></g></g><g><g><path d="m241.195 318.811h93.132s-25.761-214.764-25.866-214.161c-.002-.023-.004-.046-.005-.069v-65.951c0-18.573-15.057-33.63-33.63-33.63-18.573 0-33.63 15.057-33.63 33.63v280.181z" fill="#e0e0e0"/></g><g><path d="m308.461 104.651c-.002-.023-.004-.046-.005-.069v-65.952c0-18.573-15.057-33.63-33.63-33.63-2.937 0-5.785.379-8.5 1.086 14.458 3.766 25.13 16.908 25.13 32.544v65.951c.002.023.004.046.005.069.105-.603 25.866 214.161 25.866 214.161h17s-25.761-214.764-25.866-214.16z" fill="#c9c9c9"/></g></g><g><g><path d="m308.456 73.019h64.153v213.716c0 17.715-14.361 32.077-32.077 32.077-17.715 0-32.077-14.361-32.077-32.077v-213.716z" fill="#1fd4af"/></g><g><path d="m355.609 73.019v213.716c0 14.772-9.988 27.203-23.577 30.93 2.708.743 5.556 1.147 8.5 1.147 17.715 0 32.077-14.361 32.077-32.077v-213.716z" fill="#0eaf89"/></g></g></g><g><g><path d="m97.804 141.582h-60c-2.761 0-5-2.239-5-5s2.239-5 5-5h60c2.761 0 5 2.239 5 5s-2.238 5-5 5z" fill="#fff"/></g><g><path d="m207.804 184.915h-170c-2.761 0-5-2.239-5-5s2.239-5 5-5h170c2.761 0 5 2.239 5 5s-2.238 5-5 5z" fill="#fff"/></g><g><path d="m207.804 227.915h-170c-2.761 0-5-2.239-5-5s2.239-5 5-5h170c2.761 0 5 2.239 5 5s-2.238 5-5 5z" fill="#fff"/></g><g><path d="m137.804 270.915h-100c-2.761 0-5-2.239-5-5s2.239-5 5-5h100c2.761 0 5 2.239 5 5s-2.238 5-5 5z" fill="#fff"/></g><g><path d="m97.804 98.248h-60c-2.761 0-5-2.239-5-5s2.239-5 5-5h60c2.761 0 5 2.239 5 5s-2.238 5-5 5z" fill="#fff"/></g><g><path d="m97.804 54.915h-60c-2.761 0-5-2.239-5-5s2.239-5 5-5h60c2.761 0 5 2.239 5 5s-2.238 5-5 5z" fill="#fff"/></g></g><g><g><path d="m129.97 47.248h80v92h-80z" fill="#fff"/></g></g></g><g><g><g><path d="m140.227 361.416v-24.62h-83.038v24.62h-15.189c-5.523 0-10 4.477-10 10v83.584c0 5.523 4.477 10 10 10h113.415c5.523 0 10-4.477 10-10v-83.584c0-5.523-4.477-10-10-10z" fill="#5c6bc0"/></g><g><path d="m48 455v-83.584c0-5.523 4.477-10 10-10h15.188v-24.62h-16v24.62h-15.188c-5.523 0-10 4.477-10 10v83.584c0 5.523 4.477 10 10 10h16c-5.523 0-10-4.477-10-10z" fill="#5060a3"/></g></g><g><g><path d="m49.715 303h97.986v33.796h-97.986z" fill="#fff"/></g><g><path d="m49.715 303h16v33.796h-16z" fill="#ededed"/></g></g><g><g><path d="m122.805 413.832c0 13.308-10.788 24.097-24.097 24.097s-24.097-10.788-24.097-24.097c0-13.308 24.097-38.097 24.097-38.097s24.097 24.789 24.097 38.097z" fill="#fff"/></g><g><path d="m88.611 415.832c0-8.914 10.804-22.968 17.943-31.284-4.337-5.201-7.846-8.813-7.846-8.813s-24.097 24.788-24.097 38.097c0 13.308 10.788 24.097 24.097 24.097 1.273 0 2.523-.1 3.742-.291-8.177-3.853-13.839-12.167-13.839-21.806z" fill="#ededed"/></g><g><path d="m98.708 442.929c-16.044 0-29.097-13.053-29.097-29.097 0-14.907 22.9-38.896 25.511-41.582 2.39-2.02 4.781-2.02 7.171 0 2.611 2.687 25.511 26.675 25.511 41.582 0 16.044-13.052 29.097-29.096 29.097zm.001-59.863c-8.522 9.488-19.098 23.616-19.098 30.767 0 10.53 8.567 19.097 19.097 19.097s19.097-8.567 19.097-19.097c-.001-7.163-10.574-21.286-19.096-30.767z" fill="#333"/></g></g></g><g><g><g><g><path d="m168.943 273.235c5.86-10.389 19.122-13.919 29.372-7.819l15.453 9.198c19.736 11.748 41.102 20.509 63.405 25.998 15.424 3.796 30.469-7.456 31.186-23.324.584-12.933-8.724-24.221-21.538-26.066-33.817-4.869-76.28-8.993-76.28-8.993-23.55 24.578-42.142 20.582-50.963 16.182-3.21-1.602-4.234-5.697-2.237-8.676l20.696-30.868c3.776-5.632 9.348-9.818 15.808-11.877l41.826-13.331c10.759-3.429 22.467-2.151 32.233 3.52l52.282 30.359c4.674 2.714 8.75 6.347 11.98 10.68l96.207 129.024-56.38 65.287-32.052-28.391s-42.41-3.613-78.344-39.368c-21.509-21.402-45.628-40.016-71.881-55.229l-12.92-7.487c-10.069-5.833-13.57-18.683-7.853-28.819z" fill="#fdd2b5"/></g><g><path d="m220.671 200.66c10.759-3.429 22.467-2.151 32.233 3.52l52.282 30.359c4.674 2.714 8.75 6.347 11.98 10.68l101.352 133.436 9.855-11.412-96.207-129.024c-3.231-4.333-7.306-7.966-11.98-10.68l-52.282-30.359c-9.766-5.671-21.473-6.949-32.233-3.52l-41.826 13.331c-3.613 1.152-6.932 2.989-9.831 5.353z" fill="#f9c19b"/></g></g><g><g><path d="m348.073 428.195 80.825-78.488 36.102 36.568-79.56 78.725z" fill="#fcca3d"/></g><g><path d="m451.932 399.206 13.068-12.931-36.102-36.569-13.19 12.809z" fill="#e5a505"/></g></g></g><g><g><g><path d="m420.612 8c-.375.027-.75.055-1.125.083-55.16 4.221-98.952 23.043-125.177 71.29l-5.298-22.418c-.444.425-.9.853-1.367 1.283-27.316 25.13-45.155 58.834-49.615 95.618l-.131 1.082-12.787-17.038c-8.296 17.828-14.29 36.941-17.576 57.009-4.053 24.753-.869 45.507 7.801 52.628 8.669 7.121 29.064 6.165 53.258-2.044 16.023-5.437 28.697-12.781 42.669-21.235l-14.807-10.953.622-.155c39.766-9.892 73.935-34.688 96.577-68.741.22-.331.438-.651.653-.959l-27.115.001c42.296-33.126 58.137-77.357 53.901-130.216-.14-1.743-.301-3.488-.483-5.235z" fill="#ed4848"/></g><g><path d="m301.012 68.955 5.298 22.418c24.631-45.315 64.761-64.67 115.25-70.353-.111-2.576-.257-5.167-.467-7.786-.14-1.743-.3-3.488-.482-5.234-.375.027-.75.055-1.125.083-51.458 3.938-93.015 20.592-119.654 61.978.402-.37.798-.739 1.18-1.106z" fill="#cc4040"/></g><g><path d="m219.536 206.909c3.134-19.141 8.737-37.409 16.446-54.525l-10.87-14.484c-8.296 17.828-14.29 36.941-17.576 57.009-4.053 24.753-.869 45.507 7.801 52.628 1.636 1.344 3.691 2.399 6.109 3.174-3.984-10.073-4.844-25.888-1.91-43.802z" fill="#cc4040"/></g><g><path d="m249.899 166.939.131-1.082c4.12-33.97 19.656-65.307 43.521-89.697l-4.539-19.204c-.443.425-.9.853-1.367 1.283-26.74 24.599-44.389 57.418-49.307 93.296z" fill="#cc4040"/></g></g></g></g></g><path d="m468.559 382.762-36.103-36.568c-1.932-1.955-5.073-1.986-7.042-.074l-3.802 3.692-44.208-59.286c.13-1.266.204-118.307.204-118.307 7.419-7.623 14.195-15.992 20.211-25.04 2.165-3.258 1.524-8.727-3.511-8.727h-13.532c36.818-34.096 49.952-81.936 44.808-130.971-.335-3.209-3.56-4.81-6.479-4.382-46.396 3.55-80.815 17.097-105.65 41.97v-6.438c0-21.301-17.329-38.63-38.63-38.63-1.728.339-3.438.339-5.133 0h-231.062c-21.301-.001-38.63 17.328-38.63 38.629v334.184c0 2.761 2.239 5 5 5h22v77.186c0 8.271 6.729 15 15 15h113.416c8.271 0 15-6.729 15-15v-77.187h70.78c2.762 0 5-2.239 5-5v-15.776c4.036 3.661 7.997 7.419 11.875 11.278 33.146 32.981 71.193 39.529 79.741 40.617l11.986 10.617-5.209 5.058c-2.014 2.376-2.022 4.759-.025 7.149l37.367 36.806c2.343 1.92 4.685 1.917 7.025-.008l79.561-78.725c1.962-1.941 1.98-5.103.042-7.067zm-52.469-369.378c.007.083.014.167.02.25 4.321 53.916-12.688 95.092-51.999 125.88-3.662 2.869-1.571 8.937 3.083 8.937h17.521c-22.125 29.907-53.386 51.028-88.843 59.848-3.928 1.007-6.24 6.178-2.389 9.026l8.783 6.498c-11.53 6.822-22.172 12.49-35.278 16.937-22.639 7.682-37.462 7.652-44.892 4.874l120.832-139.298c1.81-2.086 1.585-5.244-.501-7.053s-5.243-1.587-7.054.5l-120.486 138.899c-3.801-7.866-5.736-22.698-2.417-42.964 2.698-16.474 7.32-32.579 13.767-47.989l7.663 10.211c3.192 4.255 8.802.952 9.094-3.481 3.991-32.91 19.24-63.858 43.161-87.856l3.29 13.921c1.035 4.374 7.111 5.189 9.259 1.238 22.501-41.398 59.861-63.188 117.386-68.378zm-48.482 168.309v95.694l-31.434-42.156c-7.006-9.395-17.647-14.435-27.532-20.176 21.746-6.947 41.761-18.324 58.966-33.362zm-81.501 74.48c10.31 1.484 17.728 10.465 17.256 20.891-.561 12.433-12.866 21.683-24.995 18.694-10.994-2.706-21.743-6.221-32.173-10.509v-28.951c4.795-.742 9.916-1.869 15.317-3.388 9.053 1.119 17.328 2.216 24.595 3.263zm-49.912 1.122v23.55c-10.44-4.892-20.295-10.78-30.187-16.668l9.266-10.682c6.265 3.457 13.915 4.067 20.921 3.8zm38.63-247.295c15.786 0 28.63 12.844 28.63 28.63v17.702c-2.485 3.153-4.859 6.445-7.115 9.891l-2.462-10.418c-1.271-5.375-6.756-3.88-9.619-1.247-16.249 14.949-29.141 32.784-38.063 52.304v-68.232c-.001-15.787 12.843-28.63 28.629-28.63zm-114.409 445c0 2.757-2.243 5-5 5h-113.416c-2.757 0-5-2.243-5-5v-83.584c0-2.757 2.243-5 5-5h15.188c2.761 0 5-2.239 5-5v-19.62h73.038v19.62c0 2.761 2.239 5 5 5h15.189c2.757 0 5 2.243 5 5v83.584zm-105.701-123.204v-23.796h87.985v23.796zm181.48 36.018h-66.235c-1.62-6.534-7.517-11.398-14.544-11.398h-10.189v-14.62h2.474c2.761 0 5-2.239 5-5v-33.796c0-2.761-2.239-5-5-5h-97.986c-2.761 0-5 2.239-5 5v33.796c0 2.761 2.239 5 5 5h2.474v14.62h-10.189c-7.027 0-12.925 4.864-14.544 11.398h-17.456v-.814-328.37c0-15.787 12.843-28.63 28.63-28.63h210.29c-7.81 7.073-12.724 17.288-12.724 28.63v97.224c-.522 2.183-1 4.377-1.427 6.583l-5.657-7.538c-2.229-2.971-6.965-2.476-8.532.892-9.272 19.926-15.898 41.546-18.712 63.396-11.514 3.669-22.588 7.96-29.211 18.729-6.489 9.679-12.978 19.357-19.467 29.036-3.596 5.363-1.572 13.075 4.157 15.935 2.743 1.368 6.281 2.681 10.464 3.369-1.214 1.375-2.297 2.886-3.221 4.524-7.028 12.459-2.676 28.431 9.701 35.603 21.679 12.562 42.67 25.758 61.906 41.929v19.502zm-31.273-127.008c-20.261 19.943-35.629 16.866-43.112 13.132-.522-.365-.627-.838-.316-1.418l20.695-30.868c4.438-6.619 11.358-9.586 18.714-11.663-.576 12.343.83 22.969 4.019 30.817zm143.15 163.855c4.476-2.088 9.274-5.443 13.95-10.83 1.811-2.085 1.588-5.243-.498-7.054-2.085-1.81-5.243-1.587-7.053.498-9.903 11.407-19.922 10.854-22.928 10.37-13.885-3.056-41.792-11.913-66.42-36.418-25.599-25.472-54.705-45.467-85.82-63.498-7.661-4.439-10.355-14.325-6.005-22.038 4.438-7.867 14.731-10.394 22.495-5.958l15.418 9.178c20.176 12.009 41.967 20.944 64.767 26.556 18.214 4.484 36.531-9.27 37.376-27.953.862-19.065-13.943-29.614-31.039-31.977 10.608-4.625 20.685-10.449 30.603-16.438 5.788 3.213 11.212 6.703 15.24 12.107l86.22 115.629-57.385 55.725zm37.36 53.313-30.208-29.754 73.6-71.472 29.109 29.485z" fill="#333"/></g></svg>