<svg id="Icons" height="512" viewBox="0 0 60 60" width="512" xmlns="http://www.w3.org/2000/svg"><path d="m18.966 52.5a.5.5 0 0 1 -.335-.871l3.111-2.807-3.462 2a.5.5 0 0 1 -.615-.773l1.784-1.913-1.169.675a.5.5 0 0 1 -.739-.537l.317-1.483a.5.5 0 0 1 -.078-.9l.5-.289a.5.5 0 0 1 .74.537l-.267 1.246 3.1-1.788a.5.5 0 0 1 .615.773l-1.785 1.914 4.662-2.691a.5.5 0 0 1 .585.8l-3.114 2.807 6.263-3.615a.5.5 0 0 1 .561.824l-2.227 1.768 4.5-2.595a.5.5 0 0 1 .579.809l-2.992 2.617 5.945-3.433a.5.5 0 0 1 .578.812l-2.923 2.523 5.784-3.339a.5.5 0 0 1 .569.818l-2.677 2.225 4.95-2.857a.5.5 0 0 1 .59.8l-2.987 2.771 2.407-1.389a.5.5 0 0 1 .667.708l-1.21 1.836.555-.32a.5.5 0 1 1 .5.865l-2.387 1.378a.5.5 0 0 1 -.614-.09.5.5 0 0 1 -.053-.618l1.21-1.836-4.42 2.548a.5.5 0 0 1 -.589-.8l2.985-2.77-6.193 3.575a.5.5 0 0 1 -.57-.817l2.683-2.227-5.279 3.048a.5.5 0 0 1 -.578-.812l2.922-2.521-5.781 3.338a.5.5 0 0 1 -.584-.809l2.993-2.621-5.948 3.434a.5.5 0 0 1 -.561-.824l2.224-1.766-4.492 2.594a.489.489 0 0 1 -.25.068z" fill="#afb5bf"/><path d="m15.44 59.471a.5.5 0 0 1 -.281-.913l.512-.349-2.071 1.191a.5.5 0 0 1 -.546-.836l3.432-2.515-5.039 2.909a.5.5 0 0 1 -.534-.845l.592-.407-.228.131a.5.5 0 0 1 -.576-.812l3.372-2.9-2.684 1.55a.5.5 0 1 1 -.5-.865l7.296-4.21a.5.5 0 0 1 .576.811l-3.372 2.9 6.437-3.711a.5.5 0 0 1 .534.844l-.59.407 2.168-1.251a.5.5 0 0 1 .545.836l-3.434 2.516 5.809-3.352a.5.5 0 0 1 .532.845l-.517.352 2.075-1.2a.5.5 0 0 1 .531.846l-.072.048 1.551-.894a.5.5 0 0 1 .55.833l-3.871 2.894 6.463-3.724a.5.5 0 0 1 .553.83l-4.21 3.211 7-4.042a.5.5 0 0 1 .553.83l-4.2 3.2 6.977-4.028a.5.5 0 0 1 .555.829l-4.344 3.344 6-3.462a.5.5 0 0 1 .543.838l-2.03 1.463 2.745-1.584a.5.5 0 0 1 .562.824l-2.95 2.347 3.95-2.28a.5.5 0 0 1 .562.823l-1.858 1.486 2.655-1.534a.5.5 0 0 1 .6.793l-2.082 2.005 2.919-1.693a.5.5 0 0 1 .611.778l-1.153 1.2.659-.38a.5.5 0 0 1 .685.679l-.426.751a.5.5 0 0 1 .155.924l-1.124.648a.5.5 0 0 1 -.686-.678l.307-.54-2.109 1.218a.5.5 0 0 1 -.611-.778l1.153-1.2-3.432 1.978a.5.5 0 0 1 -.6-.793l2.081-2-4.845 2.8a.5.5 0 0 1 -.563-.823l1.861-1.484-4 2.308a.5.5 0 0 1 -.563-.828l2.95-2.352-5.5 3.175a.5.5 0 0 1 -.543-.838l2.032-1.465-3.987 2.3a.5.5 0 0 1 -.555-.829l4.343-3.342-7.225 4.171a.5.5 0 0 1 -.553-.83l4.2-3.2-6.98 4.03a.5.5 0 0 1 -.554-.83l4.213-3.213-7 4.043a.5.5 0 0 1 -.55-.833l3.873-2.9-6.464 3.733a.5.5 0 0 1 -.53-.846l.071-.048-1.551.894a.5.5 0 0 1 -.25.071z" fill="#ccd0da"/><path d="m19.885 59.471a.5.5 0 0 1 -.324-.88l.476-.407-2.113 1.216a.5.5 0 0 1 -.579-.808l.675-.592-2.426 1.4a.5.5 0 0 1 -.654-.728l1.488-2.023-4.58 2.651a.5.5 0 0 1 -.617-.774l1.3-1.392-1.25.721a.5.5 0 0 1 -.73-.571l.4-1.415a.5.5 0 0 1 -.108-.912l.617-.356a.5.5 0 0 1 .73.57l-.342 1.2 3.071-1.771a.5.5 0 0 1 .616.773l-1.3 1.393 3.755-2.168a.5.5 0 0 1 .653.728l-1.487 2.024 4.771-2.754a.5.5 0 0 1 .579.808l-.673.59 2.426-1.4a.5.5 0 0 1 .574.812l-.479.41 2.119-1.223a.5.5 0 0 1 .618.77l-1.422 1.55 4.022-2.322a.5.5 0 0 1 .655.726l-1.486 2.043 4.809-2.775a.5.5 0 0 1 .588.8l-.94.859 2.883-1.66a.5.5 0 0 1 .595.794l-1.121 1.07 3.226-1.866a.5.5 0 0 1 .608.782l-1.323 1.354 3.7-2.138a.5.5 0 0 1 .6.79l-1.219 1.194 3.44-1.985a.5.5 0 0 1 .6.787l-1.261 1.257 3.555-2.046a.5.5 0 0 1 .6.786l-1.277 1.279 1.8-1.038a.5.5 0 0 1 .623.766l-.561.63a.5.5 0 0 1 .436.9l-2.616 1.5a.5.5 0 0 1 -.623-.765l.547-.614-2.388 1.379a.5.5 0 0 1 -.6-.786l1.277-1.279-3.582 2.065a.5.5 0 0 1 -.6-.787l1.264-1.254-3.546 2.041a.5.5 0 0 1 -.6-.79l1.219-1.194-3.438 1.984a.5.5 0 0 1 -.607-.782l1.323-1.354-3.7 2.136a.5.5 0 0 1 -.6-.794l1.122-1.071-3.226 1.865a.5.5 0 0 1 -.588-.8l.938-.859-2.875 1.659a.5.5 0 0 1 -.654-.726l1.488-2.048-4.8 2.774a.5.5 0 0 1 -.619-.77l1.422-1.55-4.024 2.32a.493.493 0 0 1 -.25.071z" fill="#afb5bf"/><path d="m5.629 47.471a.5.5 0 0 1 -.275-.918l.729-.479-2.183 1.259a.5.5 0 0 1 -.675-.171.5.5 0 0 1 .152-.681l.03-.019-.736.425a.5.5 0 0 1 -.533-.845l3.33-2.292-3.741 2.159a.5.5 0 0 1 -.553-.83l4.84-3.679-4.735 2.729a.5.5 0 0 1 -.567-.819l3.415-2.8-2.851 1.641a.5.5 0 0 1 -.6-.792l1.929-1.859-1.333.77a.5.5 0 0 1 -.624-.77l1.3-1.466a.528.528 0 0 1 -.053-.075.5.5 0 0 1 .183-.684l1.185-.675a.5.5 0 0 1 .624.765l-.443.5 2.191-1.265a.5.5 0 0 1 .6.792l-1.928 1.856 4.593-2.648a.5.5 0 0 1 .568.819l-3.416 2.801 6.279-3.62a.5.5 0 0 1 .553.83l-4.839 3.677 7.818-4.513a.5.5 0 0 1 .533.844l-3.33 2.293 5.434-3.138a.5.5 0 0 1 .523.851l-.014.009 1.493-.861a.5.5 0 0 1 .524.85l-.736.485 2.312-1.335a.5.5 0 0 1 .538.842l-4.84 3.39 7.334-4.233a.5.5 0 0 1 .535.843l-4.556 3.166 6.956-4.015a.5.5 0 0 1 .544.837l-5.972 4.339 8.967-5.177a.5.5 0 0 1 .537.843l-4.6 3.2 7.012-4.048a.5.5 0 0 1 .539.841l-5.248 3.717 7.9-4.559a.5.5 0 0 1 .672.165.5.5 0 0 1 -.137.679l-4.462 3.1 6.828-3.941a.5.5 0 0 1 .544.838l-5.926 4.3 8.892-5.134a.5.5 0 0 1 .525.851l-.7.459 2.271-1.311a.5.5 0 0 1 .547.835l-6.29 4.635 9.475-5.471a.5.5 0 0 1 .538.842l-4.98 3.5 7.522-4.343a.5.5 0 0 1 .536.844l-4.491 3.114 6.858-3.959a.5.5 0 0 1 .524.851l-.64.421 1.556-.9a.5.5 0 0 1 .546.836l-5.705 4.187 5.955-3.438a.5.5 0 0 1 .537.842l-2.213 1.557 1.69-.975a.5.5 0 0 1 .574.813l-3.556 3.033 2.983-1.721a.5.5 0 0 1 .568.817l-.8.659.228-.13a.5.5 0 0 1 .631.756l-.937 1.1a.5.5 0 0 1 .154.923l-1.924 1.111a.5.5 0 0 1 -.631-.757l.7-.82-2.867 1.654a.5.5 0 0 1 -.569-.817l.8-.659-2.562 1.476a.5.5 0 0 1 -.574-.813l3.554-3.032-6.662 3.845a.5.5 0 0 1 -.537-.841l2.213-1.559-4.154 2.4a.5.5 0 0 1 -.546-.836l5.705-4.186-8.7 5.022a.5.5 0 0 1 -.525-.85l.636-.418-2.2 1.268a.5.5 0 0 1 -.536-.843l4.48-3.11-6.847 3.953a.5.5 0 0 1 -.537-.841l4.982-3.5-7.524 4.341a.5.5 0 0 1 -.547-.835l6.29-4.634-9.473 5.469a.5.5 0 0 1 -.525-.85l.7-.462-2.271 1.312a.5.5 0 0 1 -.544-.838l5.93-4.291-8.895 5.129a.5.5 0 0 1 -.535-.843l4.462-3.1-6.825 3.943a.5.5 0 0 1 -.539-.84l5.25-3.718-7.898 4.558a.5.5 0 0 1 -.536-.842l4.6-3.2-7.008 4.042a.5.5 0 0 1 -.544-.837l5.974-4.339-8.968 5.176a.5.5 0 0 1 -.535-.842l4.557-3.168-6.953 4.01a.5.5 0 0 1 -.537-.841l4.84-3.391-7.331 4.232a.5.5 0 0 1 -.25.071z" fill="#ccd0da"/><path d="m2.855 39.5a.5.5 0 0 1 -.258-.928l12.924-7.807-14.241 8.22a.5.5 0 0 1 -.511-.858l26.014-15.966-25.503 14.724a.5.5 0 0 1 -.511-.859l25.902-15.926-25.391 14.658a.5.5 0 0 1 -.512-.858l24.138-14.869-23.626 13.641a.5.5 0 0 1 -.508-.861l3.508-2.111-3 1.732a.5.5 0 0 1 -.511-.859l16.668-10.219-16.157 9.328a.5.5 0 0 1 -.512-.859l16.469-10.157-15.957 9.212a.5.5 0 0 1 -.516-.856l20.623-13.03-20.108 11.608a.5.5 0 0 1 -.517-.855l17.938-11.385-17.421 10.056a.5.5 0 0 1 -.517-.855l14-8.862-13.483 7.781a.5.5 0 0 1 -.514-.857l6.544-4.072-6.03 3.48a.5.5 0 0 1 -.522-.852l12.379-8.025-11.857 6.846a.5.5 0 0 1 -.515-.856l2.813-1.762-2.3 1.326a.5.5 0 0 1 -.521-.853l6.683-4.313-6.16 3.558a.5.5 0 0 1 -.525-.85l6.668-4.4-6.143 3.55a.5.5 0 0 1 -.53-.847l5.9-3.985-5.37 3.1a.5.5 0 0 1 -.534-.844l4.683-3.24-4.149 2.4a.5.5 0 0 1 -.546-.836l4.2-3.078-3.654 2.1a.5.5 0 0 1 -.562-.823l3.237-2.592-2.675 1.545a.5.5 0 0 1 -.573-.815l1.449-1.226-.876.506a.5.5 0 0 1 -.64-.745l1.037-1.295a.5.5 0 0 1 -.248-.933l1.933-1.116a.5.5 0 0 1 .639.745l-.919 1.149 3.419-1.97a.5.5 0 0 1 .573.814l-1.45 1.223 3.533-2.037a.5.5 0 0 1 .563.823l-3.237 2.589 5.918-3.412a.5.5 0 0 1 .546.836l-4.2 3.08 6.775-3.916a.5.5 0 0 1 .535.843l-4.681 3.24 7.072-4.083a.5.5 0 0 1 .531.846l-5.9 3.985 8.368-4.831a.5.5 0 0 1 .526.849l-6.672 4.398 9.1-5.247a.5.5 0 0 1 .522.852l-6.675 4.304 8.937-5.156a.5.5 0 0 1 .515.856l-2.819 1.763 4.542-2.619a.5.5 0 0 1 .522.852l-12.378 8.022 15.375-8.874a.5.5 0 0 1 .515.857l-6.541 4.07 8.536-4.927a.5.5 0 0 1 .518.855l-14 8.866 16.836-9.721a.5.5 0 0 1 .517.854l-17.931 11.381 21.197-12.235a.5.5 0 0 1 .516.855l-20.626 13.03 24.056-13.885a.5.5 0 0 1 .513.858l-16.46 10.148 19.07-11.006a.5.5 0 0 1 .512.858l-16.669 10.217 19.191-11.075a.5.5 0 0 1 .508.861l-3.499 2.103 5.136-2.964a.5.5 0 0 1 .513.858l-24.149 14.872 26.234-15.146a.5.5 0 0 1 .511.858l-25.9 15.924 26.494-15.294a.5.5 0 0 1 .512.858l-26.021 15.97 25.691-14.832a.5.5 0 0 1 .508.86l-12.955 7.826 12.449-7.186a.5.5 0 0 1 .513.857l-25.798 16.025 25.287-14.6a.5.5 0 0 1 .513.858l-21.813 13.538 21.3-12.3a.5.5 0 0 1 .511.858l-15.481 9.536 14.973-8.64a.5.5 0 0 1 .509.859l-7.027 4.279 6.519-3.762a.5.5 0 0 1 .516.855l-17.189 10.812 16.674-9.627a.5.5 0 0 1 .518.854l-15.591 9.882 15.075-8.7a.5.5 0 0 1 .518.855l-12.206 7.73 11.689-6.749a.5.5 0 0 1 .518.855l-9.051 5.724 8.54-4.93a.5.5 0 0 1 .516.857l-4.656 2.918 4.133-2.387a.5.5 0 0 1 .525.851l-9.887 6.5 9.364-5.4a.5.5 0 0 1 .517.856l-.926.585.41-.237a.5.5 0 0 1 .519.855l-.469.3a.5.5 0 0 1 .49.866l-7.512 5.311 6.975-4.026a.5.5 0 0 1 .552.831l-6.069 4.583 5.522-3.189a.5.5 0 0 1 .55.832l-3 2.256 2.453-1.416a.5.5 0 0 1 .549.833l-.662.495.114-.065a.5.5 0 0 1 .6.789l-1.568 1.545.968-.559a.5.5 0 0 1 .646.74l-.456.587a.5.5 0 0 1 .311.928l-1.949 1.124a.5.5 0 0 1 -.646-.739l.391-.5-2.155 1.244a.5.5 0 0 1 -.6-.789l1.568-1.543-4.042 2.333a.5.5 0 0 1 -.549-.833l.665-.5-2.306 1.331a.5.5 0 0 1 -.55-.832l3-2.256-5.353 3.09a.5.5 0 0 1 -.552-.831l6.072-4.589-9.393 5.425a.5.5 0 0 1 -.539-.841l7.509-5.309-10.657 6.152a.5.5 0 0 1 -.518-.854l.415-.264-1.94 1.119a.5.5 0 0 1 -.516-.855l.931-.589-2.5 1.445a.5.5 0 0 1 -.524-.851l9.884-6.5-12.745 7.353a.5.5 0 0 1 -.515-.856l4.657-2.923-6.549 3.78a.5.5 0 0 1 -.517-.855l9.047-5.722-11.4 6.579a.5.5 0 0 1 -.678-.174.5.5 0 0 1 .16-.682l12.213-7.733-14.879 8.59a.5.5 0 0 1 -.517-.855l15.587-9.879-18.6 10.736a.5.5 0 0 1 -.517-.856l17.2-10.812-20.214 11.67a.5.5 0 0 1 -.51-.86l7.035-4.287-8.917 5.148a.5.5 0 0 1 -.511-.859l15.466-9.525-17.991 10.386a.5.5 0 0 1 -.514-.858l21.814-13.536-24.933 14.396a.5.5 0 0 1 -.513-.858l25.81-16.032-29.259 16.892a.494.494 0 0 1 -.25.068z" fill="#276f82"/><g fill="#262626"><path d="m59.724 25.423c0-7.129.116-14.268 0-21.395a3.248 3.248 0 0 0 -3.255-3.328h-51.269c-2.454 0-4.886.94-4.924 3.782-.1 7.231 0 14.469 0 21.7v16.81a5.838 5.838 0 0 0 .266 2.443c1.032 2.277 3.744 1.865 5.783 1.865h10.951v3.68c-1.446.719-2.832 1.629-4.231 2.428a18.89 18.89 0 0 0 -1.85 1.04.667.667 0 0 0 -.683.712 1.5 1.5 0 0 0 -.236.691c-.09 1.365-.381 3.408 1.452 3.521.56.035 1.134 0 1.7 0h31.681c1.537 0 4.518.47 4.615-1.749.033-.742 0-1.492 0-2.235a1.434 1.434 0 0 0 -.236-.54.436.436 0 0 0 -.254-.325 13.246 13.246 0 0 0 -2.971-1.745l-2.541-1.452a10.6 10.6 0 0 0 -1-.587v-3.439h10.85c2.388 0 5.732.01 6.123-3.1a47.912 47.912 0 0 0 .027-5.871zm-56.124-24.123a9.624 9.624 0 0 1 1.689 0h50.242c3.358.18 2.745 4.1 2.745 6.409v30.74h-40.552v-20.992h36.007c.6 0 1.515-.914.538-.914h-48c-.6 0-1.515.914-.538.914h10.545v20.99h-14.552v-31.202c0-1.823-.583-5.479 1.876-5.945zm44.51 57.33a6.275 6.275 0 0 1 -1.954 0h-32.956c-.783 0-1.332.141-1.48-.942a8.884 8.884 0 0 1 -.006-2.125h36.497a1.237 1.237 0 0 1 .065.211c0 .586.253 2.664-.166 2.856zm-4.2-5.877 2.69 1.536c.09.051.183.1.277.149h-34.162c.068-.036.132-.068.2-.108l4.7-2.687c.12-.069.243-.141.368-.21a.391.391 0 0 1 -.266-.063.649.649 0 0 0 .331.025c.055-.032.114-.057.164-.093l.037-.024h.093a.645.645 0 0 1 -.158.105c.065-.007.122-.013.156-.013h14.34c2.922 0 5.877.131 8.8 0a2.248 2.248 0 0 1 .256.136 20.433 20.433 0 0 0 2.177 1.247zm-2.634-2.153c-.266.015-.528.034-.761.034h-21.135c-.226 0-.441 0-.653 0 .015-.106 0-.269 0-.451v-2.883h22.549zm14.583-3.9h-33.014c-6.025 0-12.07.143-18.094 0a2.938 2.938 0 0 1 -3.027-2.909c-.025-.562 0-1.13 0-1.692v-2.546h56.552v2.989c0 1.792-.051 4.158-2.417 4.158z"/><path d="m18.052 51.4-.065.038a.6.6 0 0 0 .2-.05z"/><path d="m28.971 42.723h-.5a2.081 2.081 0 0 0 -1.021.277c-.058.035-.2.11-.174.2s.194.083.249.083h4a2.081 2.081 0 0 0 1.025-.283c.057-.035.2-.11.174-.2s-.194-.083-.249-.083z"/><path d="m10.679 13.5a1.11 1.11 0 0 0 .256.027 2.966 2.966 0 0 0 2.285-1.134 2.671 2.671 0 0 0 .514-1.65v-1.475a2.977 2.977 0 0 0 -.35-1.607 2.866 2.866 0 0 0 -4.431-.261 2.539 2.539 0 0 0 -.687 1.744v1.417a3.307 3.307 0 0 0 .334 1.744 2.548 2.548 0 0 0 2.079 1.195zm-.159-5.913c.037-.02.024-.011 0 0zm-.786 1.8a3.037 3.037 0 0 1 .086-1.012 1.6 1.6 0 0 1 .358-.566.977.977 0 0 1 .292-.2l.037-.02c.044-.013.282-.065.183-.051.051-.007.1-.007.153-.009.025 0 .121 0 .15.006a1 1 0 0 1 .294.075 1.468 1.468 0 0 1 .64.493 3.764 3.764 0 0 1 .339 2.323 4.16 4.16 0 0 1 -.06 1.121 1.5 1.5 0 0 1 -.443.689.892.892 0 0 1 -.617.228c0-.01-.275-.03-.284-.033a1.365 1.365 0 0 1 -.357-.151 1.612 1.612 0 0 1 -.581-.615 2.037 2.037 0 0 1 -.19-1.005z"/><path d="m17.268 12.608a1.5 1.5 0 0 0 -.549.113.889.889 0 0 0 -.391.273c-.054.088-.093.2 0 .284a.573.573 0 0 0 .388.116h.74a.768.768 0 0 0 .473.1 1.323 1.323 0 0 0 .366-.1h.421a1.511 1.511 0 0 0 .567-.115.889.889 0 0 0 .391-.273c.054-.088.093-.2 0-.284a.573.573 0 0 0 -.388-.116h-.554v-5.67c0-.684-1.034-.425-1.332-.126l-1 1a.382.382 0 0 0 .175.655.983.983 0 0 0 .693-.061v4.2z"/><path d="m23.741 13.494c.027 0 .057 0 .085-.006s.07.007.1.006a2.99 2.99 0 0 0 2.287-1.126 2.6 2.6 0 0 0 .518-1.634v-1.476a2.939 2.939 0 0 0 -.325-1.558c-.911-1.58-3.234-1.491-4.419-.3a2.473 2.473 0 0 0 -.718 1.743v1.405a3.359 3.359 0 0 0 .288 1.681 2.518 2.518 0 0 0 2.184 1.265zm-.931-5.116a1.478 1.478 0 0 1 .375-.605.46.46 0 0 0 .046-.048.434.434 0 0 0 .06-.041c-.007 0 .2-.124.1-.07 0 0 .109-.049.132-.062.073-.018.244-.055.157-.043l.074-.008h.15a1.144 1.144 0 0 1 .376.089 1.539 1.539 0 0 1 .621.477 3.715 3.715 0 0 1 .367 2.372 3.906 3.906 0 0 1 -.079 1.183 1.591 1.591 0 0 1 -.419.647 1.369 1.369 0 0 1 -.189.133c.114-.066-.232.1-.073.037a.726.726 0 0 1 -.271.064 1.5 1.5 0 0 1 -1.272-.759 1.961 1.961 0 0 1 -.235-1.048v-1.296a3.349 3.349 0 0 1 .08-1.022z"/><path d="m48.5 13.317a.9.9 0 0 0 .2.022 1.625 1.625 0 0 0 .294-.032 3.312 3.312 0 0 0 2.189-1.032 2.355 2.355 0 0 0 .542-1.6v-1.452a2.675 2.675 0 0 0 -.279-1.437c-.919-1.553-3.241-1.364-4.439-.253a2.281 2.281 0 0 0 -.73 1.706v1.356a3.037 3.037 0 0 0 .26 1.586 2.333 2.333 0 0 0 1.963 1.136zm-.771-3.966a3.641 3.641 0 0 1 .071-1.021 1.745 1.745 0 0 1 .4-.715 1.365 1.365 0 0 1 .247-.211l.046-.03c.039-.014.061-.023.067-.026a1.687 1.687 0 0 1 1.306.642 3.767 3.767 0 0 1 .412 2.466 4.8 4.8 0 0 1 -.053 1.137 1.732 1.732 0 0 1 -.472.848 1.122 1.122 0 0 1 -.135.113c.012-.009-.188.128-.1.071-.114.075.028.019-.108.037.11-.015-.1 0-.1 0a1.7 1.7 0 0 1 -1.316-.868 2.31 2.31 0 0 1 -.261-1.188z"/><path d="m29.586 8.5a.871.871 0 0 0 .679-.045v4.287a2.277 2.277 0 0 0 -.321.046 1.76 1.76 0 0 0 -.5.2c-.06.039-.2.114-.172.2s.192.091.251.091h.8a.653.653 0 0 0 .616.265 1.111 1.111 0 0 0 .615-.269 2.1 2.1 0 0 0 .5-.072 1.79 1.79 0 0 0 .5-.2c.06-.039.2-.114.172-.2s-.192-.091-.251-.091h-.738v-5.762a.507.507 0 0 0 -.489-.494 1.016 1.016 0 0 0 -.856.316q-.5.5-1 1a.447.447 0 0 0 .194.728z"/><path d="m36.276 12.688a1.811 1.811 0 0 0 -.534.12 1.049 1.049 0 0 0 -.4.232c-.051.062-.109.15-.021.214a.635.635 0 0 0 .374.062h2a1.746 1.746 0 0 0 .565-.124 1.049 1.049 0 0 0 .4-.232c.051-.062.109-.15.021-.214a.635.635 0 0 0 -.374-.062h-.583v-5.878c0-.333-1.26.13-1.38.25l-1 1c-.227.227.2.244.342.234a2.369 2.369 0 0 0 .59-.128z"/><path d="m41.7 8.346a1.655 1.655 0 0 0 .575-.132v4.52a2 2 0 0 0 -.335.046 1.682 1.682 0 0 0 -.5.2c-.062.042-.2.119-.17.212s.19.1.253.1h.811a1.143 1.143 0 0 0 .7 0h.485a2.017 2.017 0 0 0 .53-.073 1.682 1.682 0 0 0 .5-.2c.062-.042.2-.119.17-.212s-.19-.1-.253-.1h-.747v-5.9c0-.2-.517-.148-.606-.134a1.4 1.4 0 0 0 -.782.351l-1 1c-.237.24.213.326.369.322z"/><path d="m11.713 22.391h1a1.512 1.512 0 0 0 .567-.116.857.857 0 0 0 .23-.126.558.558 0 0 0 .161-.149c.054-.087.094-.2 0-.281a.575.575 0 0 0 -.387-.114h-1a1.512 1.512 0 0 0 -.567.116.857.857 0 0 0 -.23.126.558.558 0 0 0 -.161.145c-.054.087-.094.2 0 .281a.575.575 0 0 0 .387.118z"/><path d="m12.414 25.612h-.126a1.527 1.527 0 0 0 -.567.115.866.866 0 0 0 -.231.127.553.553 0 0 0 -.161.144c-.054.086-.094.2 0 .279a.585.585 0 0 0 .387.111h1a1.527 1.527 0 0 0 .567-.115.866.866 0 0 0 .231-.127.553.553 0 0 0 .157-.146c.054-.086.094-.2 0-.279a.58.58 0 0 0 -.387-.111z"/><path d="m11.586 30.5a.856.856 0 0 0 .355.047h1a.794.794 0 0 0 .292-.068.735.735 0 0 0 .253-.134.52.52 0 0 0 .167-.188.387.387 0 0 0 .082-.21.42.42 0 0 0 -.18-.38l-.141-.075a.856.856 0 0 0 -.355-.047h-1a.789.789 0 0 0 -.292.068.735.735 0 0 0 -.253.134.52.52 0 0 0 -.167.188.387.387 0 0 0 -.082.21.42.42 0 0 0 .18.38z"/><path d="m13.423 33.53a.911.911 0 0 0 -.352-.036h-1a.9.9 0 0 0 -.291.069.826.826 0 0 0 -.255.128.529.529 0 0 0 -.17.176.369.369 0 0 0 -.087.2.359.359 0 0 0 .17.343l.139.065a.891.891 0 0 0 .352.035h1a.872.872 0 0 0 .291-.068.807.807 0 0 0 .255-.129.517.517 0 0 0 .17-.175.369.369 0 0 0 .087-.2.359.359 0 0 0 -.17-.343z"/><path d="m22.286 33.6h-1a1.511 1.511 0 0 0 -.567.115.845.845 0 0 0 -.23.127.551.551 0 0 0 -.161.147c-.054.088-.093.2 0 .285a.578.578 0 0 0 .388.116h1a1.511 1.511 0 0 0 .567-.115.822.822 0 0 0 .23-.128.534.534 0 0 0 .161-.146c.054-.088.093-.2 0-.285a.578.578 0 0 0 -.388-.116z"/><path d="m33.467 33.692h-7a1.81 1.81 0 0 0 -1.025.275c-.206.146-.214.341.091.341h7a1.81 1.81 0 0 0 1.025-.275c.206-.146.214-.341-.091-.341z"/><path d="m48.3 33.67h-11c-.263 0-.822.109-.966.362-.154.27.133.3.358.3h11c.263 0 .822-.109.966-.362.158-.27-.129-.3-.358-.3z"/><path d="m26.943 26.559h21c.848 0 1.095-1.118.114-1.118h-21c-.848 0-1.095 1.118-.114 1.118z"/><path d="m21.54 25.627h-.248a1.58 1.58 0 0 0 -.567.118.927.927 0 0 0 -.394.262c-.183.277.159.366.377.366h2a1.58 1.58 0 0 0 .567-.118.927.927 0 0 0 .394-.262c.183-.277-.159-.366-.377-.366z"/><path d="m25.3 29.664h-4a1.387 1.387 0 0 0 -.965.364c-.217.259.192.308.361.308h4a1.387 1.387 0 0 0 .965-.364c.219-.259-.19-.308-.361-.308z"/><path d="m29.969 29.718h-.5a2.037 2.037 0 0 0 -1.025.275c-.059.036-.2.113-.173.2s.193.088.25.088h4a2.037 2.037 0 0 0 1.025-.275c.059-.036.2-.113.173-.2s-.193-.088-.25-.088z"/><path d="m20.717 22.408h4a1.185 1.185 0 0 0 .957-.394c.185-.283-.158-.422-.391-.422h-4a1.185 1.185 0 0 0 -.957.394c-.185.283.158.422.391.422z"/><path d="m28.728 22.448h10a1.088 1.088 0 0 0 .952-.411c.155-.293-.132-.485-.408-.485h-10a1.088 1.088 0 0 0 -.952.411c-.155.293.132.485.408.485z"/><path d="m36.7 30.344h4a1.354 1.354 0 0 0 .964-.368c.214-.262-.187-.32-.364-.32h-4a1.354 1.354 0 0 0 -.964.368c-.214.262.187.32.364.32z"/></g></svg>