<?xml version="1.0" encoding="UTF-8"?>
<svg xmlns="http://www.w3.org/2000/svg" id="Icons" viewBox="0 0 60 60" width="512" height="512"><defs><style>.cls-1{fill:#9ec2ce;}.cls-2{fill:#d4edf8;}.cls-3{fill:#3b8596;}.cls-4{fill:#49abc6;}.cls-5{fill:#936155;}.cls-6{fill:#f2be3a;}.cls-7{fill:#f6d2b6;}.cls-8{fill:#262626;}</style></defs><path class="cls-1" d="M21.208,56.5a.5.5,0,0,1-.3-.9l1.512-1.146-3.137,1.811a.5.5,0,0,1-.579-.81l3.818-3.332a.5.5,0,0,1-.071-.053.5.5,0,0,1-.121-.575l.362-.808a.563.563,0,0,1-.093-.118.5.5,0,0,1,.183-.683l.5-.289a.5.5,0,0,1,.706.637l-.115.259,1.56-.9a.5.5,0,0,1,.579.809L23.229,52.83l5.624-3.246a.5.5,0,0,1,.551.831l-1.511,1.146,3.432-1.982a.5.5,0,0,1,.543.838l-.334.241,1.878-1.084a.5.5,0,0,1,.593.8L30.784,53.4l5.937-3.426a.5.5,0,0,1,.565.821l-1.974,1.6,1.713-.989a.5.5,0,0,1,.574.814l-.671.57.694-.4a.5.5,0,0,1,.587.8l-.046.041.153-.087a.5.5,0,0,1,.742.524L38.809,55l1.214-.7a.5.5,0,0,1,.46-.022.5.5,0,0,1,.283.366l.1.562a.5.5,0,0,1,.374.917l-.492.284a.5.5,0,0,1-.742-.343l-.1-.543-1.541.889a.5.5,0,0,1-.741-.524l.249-1.331L34.65,56.412a.5.5,0,0,1-.587-.8l.048-.043-1.468.848a.5.5,0,0,1-.574-.813l.669-.569-2.4,1.386a.5.5,0,0,1-.566-.821L31.746,54l-4.2,2.425a.5.5,0,0,1-.593-.8L30.173,52.6l-6.631,3.828A.5.5,0,0,1,23,55.589l.335-.242L21.458,56.43A.491.491,0,0,1,21.208,56.5Z"/><path class="cls-2" d="M40.625,51.47a.5.5,0,0,1-.313-.89l1.119-.9L38.443,51.4a.5.5,0,0,1-.568-.818l1.38-1.14L35.862,51.4a.5.5,0,0,1-.609-.78l2.3-2.386L32.071,51.4a.5.5,0,0,1-.59-.8l2.07-1.915-4.7,2.714a.5.5,0,0,1-.569-.817l1.389-1.149L26.261,51.4a.5.5,0,0,1-.615-.774l2.327-2.482L22.332,51.4a.5.5,0,0,1-.587-.8l2.009-1.832L19.191,51.4a.5.5,0,0,1-.589-.8l2.068-1.915-4.7,2.714a.5.5,0,0,1-.574-.812l1.648-1.408L13.193,51.4a.5.5,0,0,1-.575-.812l1.651-1.41L10.419,51.4a.5.5,0,0,1-.6-.788l2.242-2.221L6.844,51.4a.5.5,0,0,1-.61-.78l2.3-2.381L3.082,51.389a.5.5,0,0,1-.615-.775l2.31-2.468L1.4,50.1a.5.5,0,0,1-.59-.8l.676-.629-.207.119a.5.5,0,0,1-.671-.7l.573-.9A.5.5,0,0,1,.9,46.963a.5.5,0,0,1,.183-.684L2.263,45.6a.5.5,0,0,1,.671.7l-.382.6,2.255-1.3a.5.5,0,0,1,.59.8l-.675.628L7.194,45.6a.5.5,0,0,1,.616.774L5.5,48.839,11.117,45.6a.5.5,0,0,1,.61.78l-2.3,2.381L14.9,45.6a.5.5,0,0,1,.6.788l-2.241,2.221,5.215-3.01a.5.5,0,0,1,.576.812L17.4,47.817,21.255,45.6a.5.5,0,0,1,.574.812l-1.647,1.407,3.847-2.22a.5.5,0,0,1,.59.8L22.55,48.31l4.7-2.716a.5.5,0,0,1,.587.8l-2.009,1.831L30.4,45.593a.5.5,0,0,1,.616.774l-2.326,2.481,5.639-3.256a.5.5,0,0,1,.569.817L33.5,47.56l3.409-1.968a.5.5,0,0,1,.59.8l-2.07,1.916,4.706-2.716a.5.5,0,0,1,.609.78l-2.3,2.386,5.488-3.167a.5.5,0,0,1,.568.818l-1.38,1.14,3.393-1.958a.5.5,0,0,1,.563.822l-1.116.9,2.984-1.723a.5.5,0,0,1,.618.772l-2.336,2.527,5.715-3.3a.5.5,0,0,1,.617.773l-2.334,2.5L56.9,45.589a.5.5,0,0,1,.584.8l-1.957,1.76,3.029-1.748a.5.5,0,0,1,.622.767l-1.611,1.8,1.152-.664a.5.5,0,0,1,.5.865L55.355,51.4a.5.5,0,0,1-.622-.766l1.612-1.8L51.9,51.4a.5.5,0,0,1-.584-.8l1.957-1.761L48.83,51.4a.5.5,0,0,1-.616-.773l2.333-2.5L44.87,51.4a.5.5,0,0,1-.617-.772L46.588,48.1l-5.713,3.3A.493.493,0,0,1,40.625,51.47Z"/><path class="cls-3" d="M2.938,47.5a.5.5,0,0,1-.259-.927L21.141,35.346,1.28,46.812a.5.5,0,0,1-.508-.862l10.137-6.1L1.28,45.412a.5.5,0,0,1-.512-.858l28.558-17.61L1.28,43.136a.5.5,0,0,1-.508-.862l11.246-6.769L1.28,41.7a.5.5,0,0,1-.509-.859l21.523-13.11L1.28,39.866a.5.5,0,0,1-.507-.861l4.168-2.5L1.28,38.622a.5.5,0,0,1-.507-.861L6.579,34.28l-5.3,3.059a.5.5,0,0,1-.512-.859L29.09,19,1.28,35.056A.5.5,0,0,1,.771,34.2l15.537-9.42L1.28,33.451a.5.5,0,0,1-.508-.861l6.393-3.848-5.885,3.4a.5.5,0,0,1-.507-.862l.445-.266a.5.5,0,0,1-.451-.889L21.119,17.511,1.28,28.964a.5.5,0,0,1-.512-.858L17.325,17.86,1.28,27.124a.5.5,0,0,1-.512-.858l11.986-7.387L1.28,25.5a.5.5,0,0,1-.509-.86l1.6-.97L1.28,24.3a.5.5,0,0,1-.516-.856L15.418,14.2,1.28,22.36a.5.5,0,0,1-.518-.854L14.1,13.014,1.28,20.416a.5.5,0,0,1-.518-.854l10.658-6.8L1.28,18.616a.5.5,0,0,1-.525-.85L12.584,9.978,1.28,16.5a.5.5,0,0,1-.518-.855L5.2,12.816,1.28,15.081a.5.5,0,0,1-.522-.852l5.13-3.336L1.28,13.553A.5.5,0,0,1,.761,12.7l.605-.388-.086.049a.5.5,0,0,1-.522-.851l.829-.539-.307.176A.5.5,0,0,1,.748,10.3L4.159,7.966,1.28,9.627a.5.5,0,0,1-.548-.834L4.764,5.8,1.28,7.81a.5.5,0,0,1-.555-.829L3.038,5.2,1.28,6.21a.5.5,0,0,1-.614-.775L2.805,3.163l-1.525.88A.5.5,0,0,1,.631,3.31l.622-.825a.5.5,0,0,1-.186-.928L2.726.6a.5.5,0,0,1,.649.733l-.463.614L5.25.6a.5.5,0,0,1,.614.775L3.726,3.644,9,.6a.5.5,0,0,1,.556.828L7.247,3.21,11.772.6a.5.5,0,0,1,.548.834L8.288,4.427,14.921.6a.5.5,0,0,1,.532.844L12.039,3.781,17.554.6a.5.5,0,0,1,.522.851l-.814.53L19.654.6a.5.5,0,0,1,.52.853l-.609.39L21.72.6a.5.5,0,0,1,.522.851L17.1,4.791,24.368.6a.5.5,0,0,1,.519.854L20.445,4.284,26.831.6a.5.5,0,0,1,.525.85L15.528,9.236,30.491.6a.5.5,0,0,1,.519.854l-10.652,6.8L33.607.6a.5.5,0,0,1,.519.854L20.777,9.95,36.977.6a.5.5,0,0,1,.516.855L22.845,10.7,40.335.6a.5.5,0,0,1,.51.86l-1.6.972L42.419.6a.5.5,0,0,1,.513.858L30.937,8.848,45.228.6a.5.5,0,0,1,.512.857L29.185,11.7,48.414.6a.5.5,0,0,1,.514.857L28.575,14.066,51.905.6a.5.5,0,0,1,.507.861l-.2.121L53.913.6a.5.5,0,0,1,.508.861L48.047,5.3,56.186.6a.5.5,0,0,1,.508.86L41.165,10.873l16.9-9.759a.5.5,0,0,1,.513.859L30.246,19.462,58.721,3.022a.5.5,0,0,1,.507.862L53.5,7.316,58.721,4.3a.5.5,0,0,1,.507.861L55.034,7.676l3.688-2.128a.5.5,0,0,1,.509.859L37.686,19.53,58.724,7.385a.5.5,0,0,1,.507.861L48,15.008,58.725,8.816a.5.5,0,0,1,.512.859L30.685,27.281,58.726,11.092a.5.5,0,0,1,.507.861L49.077,18.062l9.65-5.571a.5.5,0,0,1,.509.86L40.786,24.57,58.728,14.212a.5.5,0,0,1,.507.861L51.523,19.72l7.206-4.16a.5.5,0,0,1,.506.861l-.423.255a.5.5,0,0,1,.432.9L36.827,31.527l21.9-12.646a.5.5,0,0,1,.51.859l-8.515,5.183L58.732,20.3a.5.5,0,0,1,.513.858L45.359,29.735l13.374-7.72a.5.5,0,0,1,.518.855L41.073,34.385l17.661-10.2a.5.5,0,0,1,.513.858l-8.087,5,7.575-4.373a.5.5,0,0,1,.517.855L48.278,33.437,58.737,27.4a.5.5,0,0,1,.525.851L44.729,37.784,58.738,29.7a.5.5,0,0,1,.526.851L47.842,38.07l10.9-6.292a.5.5,0,0,1,.523.852L52.6,36.953l6.139-3.544a.5.5,0,0,1,.528.849L52.608,38.69l6.134-3.541a.5.5,0,0,1,.53.847l-5.334,3.615,4.805-2.773a.5.5,0,0,1,.548.834l-6.079,4.507,5.533-3.194a.5.5,0,0,1,.54.84l-2.107,1.5,1.568-.905a.5.5,0,0,1,.562.823L56.847,43.21l1.9-1.1a.5.5,0,0,1,.579.81l-1.194,1.041.616-.356a.5.5,0,0,1,.665.712l-.766,1.137.1-.059a.5.5,0,1,1,.5.866L57.275,47.4a.5.5,0,0,1-.665-.712l.766-1.136-3.2,1.85a.5.5,0,0,1-.579-.809l1.2-1.043-3.211,1.853a.5.5,0,0,1-.561-.823l2.459-1.962-4.829,2.787a.5.5,0,0,1-.54-.84l2.114-1.506-4.068,2.347a.5.5,0,0,1-.548-.834l6.079-4.507-9.255,5.343a.5.5,0,0,1-.531-.847L47.23,42.95,39.5,47.413a.5.5,0,0,1-.527-.849l6.659-4.431-9.149,5.281a.5.5,0,0,1-.522-.851l6.656-4.321-8.962,5.174a.5.5,0,0,1-.525-.851l11.419-7.522L30.042,47.418a.5.5,0,0,1-.524-.851l14.54-9.539-18,10.392a.5.5,0,0,1-.517-.856l10.982-6.911L23.067,47.421a.5.5,0,0,1-.512-.858l8.069-4.991L20.49,47.423a.5.5,0,0,1-.517-.856L38.15,35.053,16.721,47.425a.5.5,0,0,1-.513-.859l13.908-8.59-16.369,9.45a.5.5,0,0,1-.51-.86l8.474-5.157L11.286,47.428a.5.5,0,0,1-.515-.858L33.184,32.618,7.528,47.43a.5.5,0,0,1-.507-.862l.037-.021-1.533.884a.5.5,0,0,1-.507-.862l7.712-4.646L3.188,47.432A.494.494,0,0,1,2.938,47.5Z"/><path class="cls-4" d="M20.521,43.47a.5.5,0,0,1-.262-.926l4.861-3L18.443,43.4a.5.5,0,0,1-.517-.855l15.628-9.875L14.967,43.4a.5.5,0,0,1-.512-.858l9.032-5.549L12.389,43.4a.5.5,0,0,1-.517-.855L32.6,29.5,8.515,43.4A.5.5,0,0,1,8,42.544L25.811,31.551,5.646,43.192a.5.5,0,0,1-.513-.857L27.494,28.476,5.28,41.3a.5.5,0,0,1-.509-.861l7.8-4.714L5.28,39.933a.5.5,0,0,1-.51-.86L20.4,29.521,5.28,38.252a.5.5,0,0,1-.509-.86L16.346,30.36,5.28,36.749a.5.5,0,0,1-.513-.857L28.1,21.4,5.28,34.575a.5.5,0,0,1-.509-.859l10.439-6.35L5.28,33.1a.5.5,0,0,1-.515-.857L25.754,19.073,5.28,30.894a.5.5,0,0,1-.51-.86l6.257-3.816L5.28,29.535a.5.5,0,0,1-.509-.86l1.783-1.083-1.274.734a.5.5,0,0,1-.516-.855l14.061-8.847L5.28,26.443a.5.5,0,0,1-.514-.856l8.77-5.471L5.28,24.882a.5.5,0,0,1-.519-.854L16.8,16.317,5.28,22.968a.5.5,0,0,1-.523-.851l11.765-7.7L5.28,20.908a.5.5,0,0,1-.522-.851l7.736-5.024L5.28,19.2a.5.5,0,0,1-.532-.845l9.16-6.251L5.28,17.082a.5.5,0,0,1-.674-.167.5.5,0,0,1,.144-.68l5.689-3.858L5.28,15.355a.5.5,0,0,1-.547-.834L11,9.893l-5.717,3.3a.5.5,0,0,1-.551-.832L8.441,9.566,5.28,11.391a.5.5,0,0,1-.561-.825L6.911,8.823,5.28,9.764a.5.5,0,0,1-.609-.781L6.347,7.255,5.28,7.87a.5.5,0,0,1-.7-.658L5.1,6.2a.492.492,0,0,1-.445-.25.5.5,0,0,1,.183-.682L5.994,4.6a.5.5,0,0,1,.7.658l-.459.911L8.949,4.6a.5.5,0,0,1,.61.78L7.882,7.107,12.23,4.6a.5.5,0,0,1,.562.824L10.6,7.164,15.048,4.6a.5.5,0,0,1,.551.832l-3.712,2.8L18.169,4.6a.5.5,0,0,1,.547.835l-6.262,4.626L21.914,4.6a.5.5,0,0,1,.53.846L16.752,9.305,24.905,4.6a.5.5,0,0,1,.532.845L16.276,11.7l12.3-7.1a.5.5,0,0,1,.523.851l-7.738,5.024L31.533,4.6a.5.5,0,0,1,.524.85l-11.766,7.7L35.1,4.6a.5.5,0,0,1,.519.853L23.581,13.162,38.416,4.6a.5.5,0,0,1,.515.856l-8.757,5.462L41.119,4.6a.5.5,0,0,1,.517.855L27.57,14.3,44.381,4.6a.5.5,0,0,1,.51.86L43.1,6.549,46.476,4.6a.5.5,0,0,1,.51.859L40.733,9.271l8.1-4.673a.5.5,0,0,1,.516.856L28.354,18.623,52.647,4.6a.5.5,0,0,1,.51.859L42.737,11.8,54.525,4.989a.5.5,0,0,1,.514.858L31.712,20.334,54.72,7.051a.5.5,0,0,1,.509.86l-11.6,7.047,11.092-6.4a.5.5,0,0,1,.51.859l-15.613,9.54,15.1-8.72a.5.5,0,0,1,.509.861l-7.8,4.715L54.72,11.6a.5.5,0,0,1,.513.857L32.879,26.315,54.72,13.705a.5.5,0,0,1,.512.858L37.4,25.569l17.316-10a.5.5,0,0,1,.516.856L34.513,29.475,54.72,17.809a.5.5,0,0,1,.511.858l-9.048,5.56L54.72,19.3a.5.5,0,0,1,.517.855L39.612,30.026,54.72,21.305a.5.5,0,0,1,.512.858L50.38,25.154l4.34-2.506a.5.5,0,0,1,.52.853l-13.57,8.74,13.05-7.534a.5.5,0,0,1,.517.856L47.9,30.205l6.821-3.937a.5.5,0,0,1,.515.856L52,29.159l2.724-1.572a.5.5,0,0,1,.52.852l-6.052,3.9,5.532-3.193a.5.5,0,0,1,.532.846l-8.647,5.9L54.72,31.21a.5.5,0,0,1,.521.853l-1.113.72.592-.341a.5.5,0,0,1,.532.845L51.2,36.062l3.516-2.03a.5.5,0,0,1,.557.826l-5.262,4.117,4.7-2.716a.5.5,0,0,1,.576.811l-3.244,2.786,2.668-1.54a.5.5,0,0,1,.617.772L53.67,40.9l1.05-.605a.5.5,0,0,1,.69.67l-.454.841a.493.493,0,0,1,.394.248.5.5,0,0,1-.183.682l-1.16.67a.494.494,0,0,1-.6-.074.5.5,0,0,1-.092-.6l.375-.693L51.329,43.4a.5.5,0,0,1-.617-.771l1.667-1.809-4.47,2.58a.5.5,0,0,1-.576-.811l3.244-2.786-6.232,3.6a.5.5,0,0,1-.558-.826l5.262-4.116L40.488,43.4a.5.5,0,0,1-.532-.844L44,39.785,37.735,43.4a.5.5,0,0,1-.521-.852l1.114-.722L35.6,43.4a.5.5,0,0,1-.533-.845l8.646-5.9L32.03,43.4a.5.5,0,0,1-.52-.852l6.053-3.9L29.325,43.4a.5.5,0,0,1-.515-.856l3.248-2.04-5.019,2.9a.5.5,0,0,1-.518-.855l7.332-4.639L24.337,43.4a.5.5,0,0,1-.521-.852l13.57-8.739L20.771,43.4A.5.5,0,0,1,20.521,43.47Z"/><path class="cls-2" d="M38.343,59.47a.5.5,0,0,1-.325-.879l.06-.053-1.5.864A.5.5,0,0,1,36,58.593l.626-.545L34.28,59.4a.5.5,0,0,1-.569-.817l.187-.155-1.685.972a.5.5,0,0,1-.6-.8l1.1-1.046L29.526,59.4a.5.5,0,0,1-.572-.815L29.3,58.3l-1.913,1.1A.5.5,0,0,1,26.8,58.6l.764-.68L24.992,59.4a.5.5,0,0,1-.629-.758l1.47-1.7L21.566,59.4a.5.5,0,0,1-.627-.76L22.4,56.963,18.175,59.4a.5.5,0,0,1-.582-.806l.755-.67-1.875,1.082a.5.5,0,0,1-.661-.718l1.17-1.689-.118.068a.5.5,0,0,1-.5-.865l2.05-1.184a.5.5,0,0,1,.661.718L17.9,57.027,22.112,54.6a.5.5,0,0,1,.582.806l-.757.673L24.5,54.6a.5.5,0,0,1,.627.76l-1.463,1.679L27.892,54.6a.5.5,0,0,1,.629.758l-1.47,1.7L31.316,54.6a.5.5,0,0,1,.582.806l-.764.68L33.709,54.6a.5.5,0,0,1,.572.815l-.344.29L35.852,54.6a.5.5,0,0,1,.594.8l-1.1,1.045,3.19-1.84a.5.5,0,0,1,.569.817l-.187.155L40.6,54.6a.5.5,0,0,1,.579.809l-.626.546,1.668-.963a.5.5,0,0,1,.575.812l-.06.052.3-.172a.5.5,0,0,1,.626.762l-.5.573.446-.257a.5.5,0,1,1,.5.865L41.028,59.4a.5.5,0,0,1-.626-.762l.5-.573L38.593,59.4A.493.493,0,0,1,38.343,59.47Z"/><path class="cls-5" d="M14.463,28.374a.5.5,0,0,1-.295-.9l6.076-4.435-7.964,4.6a.5.5,0,0,1-.533-.845l4.907-3.369L12.28,25.944a.5.5,0,0,1-.537-.841l5.473-3.847L12.294,24.1a.5.5,0,0,1-.532-.846l2.346-1.6-1.654.954a.5.5,0,0,1-.556-.828l4.64-3.59-3.24,1.87a.5.5,0,0,1-.575-.813l2.416-2.066a.5.5,0,0,1-.152-.923l3.828-2.21a.5.5,0,0,1,.576.812l-1.9,1.623,4.946-2.855a.5.5,0,0,1,.556.828l-4.64,3.591,6.708-3.872a.5.5,0,0,1,.533.846l-2.343,1.6,3.19-1.842a.5.5,0,0,1,.537.842l-5.471,3.846,5.744-3.316a.5.5,0,0,1,.533.844l-4.913,3.373L27.838,17.5a.5.5,0,0,1,.545.837L22.305,22.77l6.253-3.61a.5.5,0,0,1,.556.828L24.5,23.567l4.773-2.755a.5.5,0,0,1,.578.81l-3.228,2.8,3.37-1.945a.5.5,0,0,1,.574.813l-1.02.87.94-.543a.5.5,0,0,1,.674.7L30.293,25.7l.874-.5a.5.5,0,0,1,.75.421l.015.627a.5.5,0,0,1,.216.933l-.449.259a.5.5,0,0,1-.75-.422l-.012-.531-1.885,1.088a.5.5,0,0,1-.674-.7l.866-1.382-3.938,2.274a.5.5,0,0,1-.575-.814l1.021-.869L22.6,27.9a.5.5,0,0,1-.577-.81l3.229-2.8L18.638,28.1a.5.5,0,0,1-.557-.828L22.7,23.7l-7.985,4.61A.491.491,0,0,1,14.463,28.374Z"/><path class="cls-6" d="M11.415,43.506a.5.5,0,0,1-.3-.9l2.308-1.727-1.694.977a.5.5,0,0,1-.585-.8l2.34-2.123A.5.5,0,0,1,13.239,38l3.552-2.051a.5.5,0,0,1,.586.8l-2.1,1.9,4.91-2.835a.5.5,0,0,1,.55.833l-2.3,1.725,4.432-2.559a.5.5,0,0,1,.56.826L20.3,39.113l5.711-3.3a.5.5,0,0,1,.538.841l-.635.449,1.562-.9a.5.5,0,0,1,.552.831l-2.04,1.548,2.9-1.672a.5.5,0,0,1,.547.835l-.487.359.878-.506a.5.5,0,0,1,.576.812L28.733,39.83l2.11-1.218a.5.5,0,0,1,.65.733l-1.484,1.978,1.912-1.1a.5.5,0,0,1,.64.746l-.191.236a.5.5,0,0,1,.506.017.5.5,0,0,1,.23.464l-.045.554a.5.5,0,0,1,.121.916l-.433.25a.506.506,0,0,1-.518-.009A.5.5,0,0,1,32,42.93l.031-.378-1.481.855a.5.5,0,0,1-.64-.746l.192-.237-1.71.986a.5.5,0,0,1-.651-.732L29.227,40.7,24.52,43.417a.5.5,0,0,1-.575-.813L25.6,41.187l-3.872,2.235a.5.5,0,0,1-.546-.835l.488-.36-2.076,1.2a.5.5,0,0,1-.553-.831l2.041-1.548L16.955,43.43a.5.5,0,0,1-.538-.841l.63-.445-2.235,1.29a.5.5,0,0,1-.56-.826l3.132-2.471-5.719,3.3A.493.493,0,0,1,11.415,43.506Z"/><path class="cls-7" d="M23.383,38.236a.5.5,0,0,1-.326-.879l2.2-1.9L20.673,38.1a.5.5,0,0,1-.549-.833l2.583-1.921-3.6,2.078a.5.5,0,0,1-.544-.837l5.519-4.024L17.452,36.4a.5.5,0,0,1-.525-.85L17.6,35.1l-1.025.591a.5.5,0,0,1-.533-.844l3.793-2.6L15.589,34.7a.5.5,0,0,1-.53-.846l2.487-1.686-2.6,1.5a.5.5,0,0,1-.538-.841l4.043-2.851L14.522,32.24a.5.5,0,0,1-.554-.829l5.215-4.017-5.177,2.989a.5.5,0,0,1-.54-.84l1.805-1.285-2.512,1.449a.5.5,0,0,1-.562-.824l4.553-3.617-4.357,2.515a.5.5,0,0,1-.581-.808l2.121-1.861h0a.5.5,0,0,1,.183-.683L15.9,23.4a.5.5,0,0,1,.58.81l-.2.174L22.1,21.024a.5.5,0,0,1,.561.825l-4.554,3.617,5.74-3.313a.5.5,0,0,1,.54.84l-1.8,1.281L25.2,22.767a.5.5,0,0,1,.555.829l-5.216,4.017,6.973-4.025a.5.5,0,0,1,.538.841L24.005,27.28l5.1-2.943a.5.5,0,0,1,.53.847l-2.487,1.683,3.295-1.9a.5.5,0,0,1,.534.845l-3.791,2.6,4.536-2.619a.5.5,0,0,1,.525.85l-.676.445L31.72,27a.5.5,0,0,1,.545.837l-5.52,4.023,2.918-1.684a.5.5,0,0,1,.549.834l-2.584,1.922,1.716-.991a.5.5,0,0,1,.576.812L27.6,34.761a.506.506,0,0,1,.521.242.5.5,0,0,1-.182.683l-4.3,2.483A.491.491,0,0,1,23.383,38.236Z"/><path class="cls-3" d="M39.382,27.477a.5.5,0,0,1-.25-.933l7.588-4.381a.5.5,0,0,1,.614.775l-1.791,1.909,1.177-.68a.5.5,0,0,1,.636.75l-.51.621a.5.5,0,0,1,.087.905l-1.659.957a.5.5,0,0,1-.636-.75l.2-.241-1.725,1a.5.5,0,0,1-.614-.774l1.793-1.91-4.658,2.688A.5.5,0,0,1,39.382,27.477Z"/><path class="cls-3" d="M32.567,31.1a.5.5,0,0,1-.291-.907L38.4,25.808l-6.124,3.536a.5.5,0,0,1-.542-.839l6.833-4.915-6.6,3.812a.5.5,0,0,1-.542-.839l7.142-5.136L28.488,27.242a.5.5,0,0,1-.522-.851l2.771-1.8-3.18,1.836a.5.5,0,0,1-.529-.848l7.146-4.785-6.894,3.98a.5.5,0,0,1-.53-.846L35.1,18.276,27.28,22.789a.5.5,0,0,1-.536-.843L35.9,15.57l-8.62,4.977a.5.5,0,0,1-.541-.839l7.152-5.117L27.28,18.407a.5.5,0,0,1-.534-.844l2.76-1.9L27.28,16.942a.5.5,0,0,1-.537-.841l1.3-.913-.766.442a.5.5,0,0,1-.569-.817L29.6,12.422,27.28,13.758a.5.5,0,0,1-.576-.812l.941-.808-.365.21a.5.5,0,0,1-.664-.712l.777-1.153a.5.5,0,0,1-.508-.244.5.5,0,0,1,.182-.682L28.726,8.6a.5.5,0,0,1,.616.091.5.5,0,0,1,.048.621L28.657,10.4l3.119-1.8a.5.5,0,0,1,.577.811l-.943.81L34.22,8.6a.5.5,0,0,1,.569.817l-2.884,2.391L37.463,8.6A.5.5,0,0,1,38,9.439l-1.3.913L39.736,8.6a.5.5,0,0,1,.535.843l-2.756,1.9L42.272,8.6a.5.5,0,0,1,.541.839l-7.149,5.115L45.622,8.8a.5.5,0,0,1,.536.843L37,16.024l9.71-5.6a.5.5,0,0,1,.53.847L38.9,16.911,46.72,12.4a.5.5,0,0,1,.528.847L40.1,18.03l6.622-3.822a.5.5,0,0,1,.522.852l-2.763,1.794,2.241-1.292a.5.5,0,0,1,.542.838l-7.145,5.139,6.6-3.811a.5.5,0,0,1,.542.838l-6.83,4.913,6.288-3.63a.5.5,0,0,1,.541.839l-6.123,4.387,5.582-3.222a.5.5,0,0,1,.5.865l-14.4,8.315A.493.493,0,0,1,32.567,31.1Z"/><path class="cls-8" d="M57.293.634C39.411.663,21.515.56,3.63.634,2.227.656.589,1.2.305,2.78.244,18.232.263,33.737.275,49.193c.223,4.446,17.814,1.27,21.9,2.173a5.577,5.577,0,0,1-3.366,3.2c-2.431-.077-5.472,4.517-1.781,4.877,4.263.145,8.556,0,12.821,0,4.355-.008,8.707.013,13.06-.007,3.6-.629,1.046-5.185-1.669-4.874a5.788,5.788,0,0,1-3.308-3.194c20.682-1.443,22.994,7.061,21.79-17.585C58.763,29.024,62.2-.837,57.293.634ZM1.724,3.039C1.819.8,3.969,1.366,5.542,1.366h38.8c3.15.751,13.792-1.987,13.934,2.08.137,14.364-.073,28.734,0,43.1H1.724C1.753,32.044,1.681,17.536,1.724,3.039ZM43.009,56.955c3.527,3.325-22.86.983-25.641,1.606-1.842-1.14.634-3.6,2.237-3.12C25.391,56.353,39.371,53.413,43.009,56.955Zm-4.122-2.413c-5.974.037-11.946.018-17.92.01a6.124,6.124,0,0,0,2.6-3.186H36.335A5.924,5.924,0,0,0,38.887,54.542Zm18.407-3.908H23.613c-6.318-.048-12.885.034-19.294,0-2.024.417-2.931-1.357-2.595-3.179H58.276C58.191,48.422,58.67,50.421,57.294,50.634Z"/><path class="cls-8" d="M4.276,19.251V42.194c.735,2.1,4.324.819,6.045,1.122.18.265.765.236,1.128,0H51.112c1.248,0,4.012.408,4.554-1.12.183-5.5-.008-11.1.059-16.643,0-6.459.165-12.942,0-19.4-.043-1.684-1.625-1.47-2.871-1.47-15.512.016-31.036-.024-46.542,0C2.084,5.338,5.162,15.773,4.276,19.251ZM11.8,42.684a7.845,7.845,0,0,1,5.418-5.848,7.555,7.555,0,0,0,9.457-.074,8.408,8.408,0,0,1,5.469,5.922ZM13.933,26.52c.295-.024.778-.224.8-.578.641-2.679,5.033-1.724,6.824-3.818,1.321-.137,2.992,1.825,4.678,1.894-.544,3.2,2.5,3.716,5.036,3.345.189,2.4-1.064,1.533-2.005,2.7-.249,9.655-14.216,9.251-14.533-.117a.475.475,0,0,0-.48-.458C12.643,29.374,12.005,26.674,13.933,26.52Zm-1.223-.64c-1.13-7.509,6.56-14.134,13.566-10.222v7.175c-3-1.239-3.976-3.216-7.048-.5-1.991,1.068-5.321.539-5.9,3.3A3.425,3.425,0,0,0,12.71,25.88ZM27.724,10.911c.847-3.284,7.795-.85,10.59-1.561,2.484.551,7.241-1.54,7.962,1.843-.669,3.923,1.454,13.01-1.038,15.456a17.671,17.671,0,0,1-3.309,0c-4.546-1.955-9.095,8.287-9.238,1.545-.054-.558.336-1.651-.393-1.545-1.344,0-3.675.481-4.387-1C27.4,20.815,27.876,15.8,27.724,10.911ZM5.777,5.316c15.275-.015,30.652.011,45.961,0C54.6,4.6,54.511,7.021,54.275,9.145q0,16.484,0,32.967c.016.682.047.572-.568.572H33.693a8.74,8.74,0,0,0-6.093-6.6,7.432,7.432,0,0,0,3.093-5.711,3.175,3.175,0,0,0,.654-.272c2.12,3.553,5.782-1.313,7.792-2.75,2.773-.38,7.953,1.353,8.586-2.547-.785-3.843,2.547-16.4-2.947-16.155C39,9.168,32.566,7.535,27.122,9.421c-1.384,1.281-.681,3.258-.846,4.915C19.3,11.281,10.85,16.96,11.269,24.637c.117,2.06-.731,5.282,2.032,5.814A7.238,7.238,0,0,0,16.22,36.1a9.3,9.3,0,0,0-5.854,6.585c-1.442-.362-4.092.913-4.642-.878C5.778,29.665,5.622,17.421,5.777,5.316Z"/><path class="cls-8" d="M30.7,14.356c4.239-.309,8.938.623,12.963-.372C44.068,13.329,27.8,13.294,30.7,14.356Z"/><path class="cls-8" d="M43.069,17.489c-2.1.37-5.206-.8-6.8.571C36,19.03,46.581,18.681,43.069,17.489Z"/><path class="cls-8" d="M30.929,18.5c.732-.088,3.294.41,2.633-.909C32.854,17.164,28.629,17.671,30.929,18.5Z"/><path class="cls-8" d="M30.931,22.514c3.079-.436,7.237.9,9.8-.573C41.017,21.027,27.041,21.151,30.931,22.514Z"/></svg>
