<?xml version="1.0"?>
<svg xmlns="http://www.w3.org/2000/svg" id="Icons" viewBox="0 0 60 60" width="512" height="512"><defs><style>.cls-1{fill:#9dbcce;}.cls-2{fill:#bedcf0;}.cls-3{fill:#4793ff;}.cls-4{fill:#3376c4;}.cls-5{fill:#e1f0ff;}.cls-6{fill:#ce9680;}.cls-7{fill:#e8bba3;}.cls-8{fill:#fcd3b9;}.cls-9{fill:#262626;}</style></defs><path class="cls-1" d="M28.982,56.36a.5.5,0,0,1-.3-.9L30.747,53.9,27.02,56.056a.5.5,0,0,1-.553-.831l2.714-2.063L24.613,55.8a.5.5,0,0,1-.572-.815l3.98-3.357-6.628,3.826a.5.5,0,0,1-.559-.826l3.372-2.648L21.8,53.368a.5.5,0,0,1-.577-.81l1.185-1.027-.174.1a.5.5,0,0,1-.692-.666l.626-1.184a.513.513,0,0,1-.159-.168.5.5,0,0,1,.183-.683l.736-.424a.5.5,0,0,1,.692.667l-.383.724,3.228-1.863a.5.5,0,0,1,.577.811l-1.187,1.027,3.933-2.27a.5.5,0,0,1,.559.826l-3.371,2.647L32.4,47.944a.5.5,0,0,1,.573.815L28.99,52.117l6.523-3.765a.5.5,0,0,1,.552.831l-2.712,2.062,3.965-2.289a.5.5,0,0,1,.551.832L35.8,51.347l1.855-1.071a.5.5,0,0,1,.568.819l-1.491,1.227,1.261-.727a.5.5,0,0,1,.618.77l-.888.968.623-.359a.5.5,0,0,1,.714.619l-.177.44h0a.5.5,0,0,1,.25.933l-.965.556a.5.5,0,0,1-.714-.619l.137-.34-2.2,1.268a.5.5,0,0,1-.618-.77l.89-.969L32,56.208a.5.5,0,0,1-.567-.818l1.491-1.229-3.694,2.132A.491.491,0,0,1,28.982,56.36Z"/><path class="cls-2" d="M28.35,49.471a.5.5,0,0,1-.291-.908l1.312-.937L26.293,49.4a.5.5,0,0,1-.573-.814l3.951-3.346L22.465,49.4a.5.5,0,0,1-.543-.838l1.73-1.252L20.031,49.4a.5.5,0,0,1-.551-.832l2.684-2.021L17.221,49.4a.5.5,0,0,1-.543-.838l1.729-1.252-3.62,2.09a.5.5,0,0,1-.54-.84l1.267-.9L12.493,49.4a.5.5,0,0,1-.548-.834l2.368-1.756L9.824,49.4a.5.5,0,0,1-.575-.812l4.014-3.445L5.889,49.4a.5.5,0,0,1-.541-.839l1.376-.985L3.741,49.3a.5.5,0,0,1-.547-.835l2.087-1.539L2.309,48.643a.5.5,0,0,1-.572-.816L4.73,45.314l-3.293,1.9a.5.5,0,0,1-.6-.791l2.006-1.947-1.568.9a.5.5,0,0,1-.695-.659l.768-1.509a.5.5,0,0,1-.271-.934L2.263,41.6a.5.5,0,0,1,.7.66l-.72,1.415,3.6-2.075a.5.5,0,0,1,.6.791L4.424,44.337,9.172,41.6a.5.5,0,0,1,.571.815l-2.99,2.51L12.516,41.6a.5.5,0,0,1,.546.835l-2.085,1.538L15.088,41.6a.5.5,0,0,1,.541.839l-1.374.984L17.414,41.6a.5.5,0,0,1,.575.812l-4.015,3.447L21.352,41.6a.5.5,0,0,1,.547.834l-2.364,1.755,4.486-2.59a.5.5,0,0,1,.54.84l-1.27.906,3.024-1.746a.5.5,0,0,1,.543.838l-1.725,1.249,3.616-2.088a.5.5,0,0,1,.551.832l-2.686,2.023,4.947-2.855a.5.5,0,0,1,.543.838l-1.731,1.253,3.621-2.091a.5.5,0,0,1,.573.814l-3.951,3.346,7.208-4.161a.5.5,0,0,1,.541.84l-1.316.939,3.083-1.779a.5.5,0,0,1,.538.842l-.744.522,2.366-1.365a.5.5,0,0,1,.541.84l-1.334.952,3.1-1.792a.5.5,0,0,1,.561.824L41.739,45.13l6.132-3.54a.5.5,0,0,1,.546.836L46.3,43.982l4.145-2.392a.5.5,0,0,1,.571.816l-3.865,3.223,7-4.04a.5.5,0,0,1,.556.828L51.612,44.8l5.566-3.212a.5.5,0,0,1,.538.842l-.781.548,1.39-.8a.5.5,0,0,1,.567.82l-2.981,2.429,2.81-1.621a.5.5,0,0,1,.593.8L57.4,46.422l1.3-.753a.5.5,0,0,1,.619.77l-.8.879a.5.5,0,0,1,.056.894l-1.924,1.111a.5.5,0,0,1-.62-.77l.364-.4L54.23,49.4a.5.5,0,0,1-.593-.8l1.92-1.819L51.024,49.4a.5.5,0,0,1-.566-.82l2.978-2.427L47.811,49.4a.5.5,0,0,1-.539-.841l.787-.554-2.417,1.4a.5.5,0,0,1-.556-.828l3.088-2.383L42.611,49.4a.5.5,0,0,1-.57-.816l3.865-3.224-7,4.04a.5.5,0,0,1-.546-.836l2.116-1.552L36.338,49.4a.5.5,0,0,1-.561-.824l3.428-2.717L33.071,49.4a.5.5,0,0,1-.541-.84l1.33-.95-3.1,1.79a.5.5,0,0,1-.538-.841l.75-.528L28.6,49.4A.5.5,0,0,1,28.35,49.471Z"/><path class="cls-2" d="M20.346,59.473a.5.5,0,0,1-.365-.843l1.383-1.47-3.89,2.245a.5.5,0,0,1-.649-.735l1.493-1.965-3.964,2.288a.5.5,0,0,1-.617-.772l1.146-1.238a.5.5,0,0,1-.165-.925l2.257-1.3a.5.5,0,0,1,.617.772l-.879.951,3.256-1.88a.5.5,0,0,1,.648.735L19.123,57.3l4.68-2.7a.5.5,0,0,1,.614.775l-1.382,1.47L26.924,54.6a.5.5,0,0,1,.582.806l-.762.677L29.315,54.6a.5.5,0,0,1,.616.774L28.54,56.859,32.459,54.6a.5.5,0,0,1,.618.771L31.665,56.9l3.992-2.3a.5.5,0,0,1,.607.783l-1.3,1.316L38.6,54.6a.5.5,0,0,1,.618.771l-1.408,1.525L41.78,54.6a.5.5,0,0,1,.623.765l-1.437,1.61,2.926-1.69a.5.5,0,0,1,.608.084.5.5,0,0,1,.067.611L43.6,57.546l1.608-.929a.5.5,0,0,1,.682.685l-.188.323a.5.5,0,0,1,.38.915l-1.493.862a.5.5,0,0,1-.682-.684l.171-.294-1.7.979a.5.5,0,0,1-.676-.7l.965-1.562L38.765,59.4a.5.5,0,0,1-.623-.765l1.438-1.61L35.465,59.4a.5.5,0,0,1-.617-.771l1.406-1.524-3.977,2.3a.5.5,0,0,1-.606-.783l1.3-1.316-3.638,2.1a.5.5,0,0,1-.618-.771L30.122,57.1l-3.99,2.3a.5.5,0,0,1-.615-.774l1.391-1.489L22.987,59.4a.5.5,0,0,1-.582-.806l.762-.677L20.6,59.405A.49.49,0,0,1,20.346,59.473Z"/><path class="cls-3" d="M1.677,43.5a.5.5,0,0,1-.258-.929l7.31-4.388-7.449,4.3a.5.5,0,0,1-.511-.858L27.518,25.189,1.28,40.338a.5.5,0,0,1-.508-.861l8.156-4.9L1.28,38.994a.5.5,0,0,1-.509-.86l15.891-9.612L1.28,37.4a.5.5,0,0,1-.508-.861l11.2-6.748L1.28,35.968a.5.5,0,0,1-.509-.861L17.983,24.662,1.28,34.305a.5.5,0,0,1-.507-.862l3.089-1.852L1.28,33.081a.5.5,0,0,1-.51-.859L18.094,21.639,1.28,31.346a.5.5,0,0,1-.509-.86l13.048-7.953L1.28,29.772a.5.5,0,0,1-.514-.856L21.572,15.924,1.279,27.64a.5.5,0,0,1-.509-.86l5.57-3.387-5.061,2.92a.5.5,0,0,1-.513-.857l13.007-8.064L1.279,24.6a.5.5,0,0,1-.518-.854l17-10.828L1.279,22.436a.5.5,0,0,1-.514-.857l9.34-5.838L1.279,20.836a.5.5,0,0,1-.514-.857L7.7,15.643l-6.42,3.706a.5.5,0,0,1-.516-.856L7.881,14l-6.6,3.811a.5.5,0,0,1-.519-.854l7.1-4.545-6.583,3.8a.5.5,0,0,1-.519-.854l4.7-3.01L1.279,14.758a.5.5,0,0,1-.523-.852l5.225-3.415-4.7,2.714a.5.5,0,0,1-.537-.842L8.2,7.133,1.279,11.127a.5.5,0,0,1-.547-.835L6.644,5.934,1.279,9.03a.5.5,0,0,1-.564-.821l4.39-3.547L1.279,6.87a.5.5,0,0,1-.584-.8L3.152,3.86,1.279,4.941a.5.5,0,0,1-.648-.735L1.762,2.718a.5.5,0,0,1-.334-.926L3.361.676a.5.5,0,0,1,.649.735L2.928,2.836,6.805.6a.5.5,0,0,1,.584.8L4.931,3.608,10.146.6a.5.5,0,0,1,.565.821L6.322,4.965,13.887.6a.5.5,0,0,1,.547.835L8.521,5.791l9-5.193a.5.5,0,0,1,.537.841L10.6,6.672,21.119.6a.5.5,0,0,1,.524.851l-5.206,3.4L23.807.6a.5.5,0,0,1,.519.853L19.611,4.47,26.32.6a.5.5,0,0,1,.52.853l-7.1,4.544L29.089.6a.5.5,0,0,1,.516.855l-7.119,4.5L31.76.6a.5.5,0,0,1,.514.856L25.338,5.791l9-5.194a.5.5,0,0,1,.515.856l-9.34,5.838L37.106.6a.5.5,0,0,1,.519.854l-17,10.831L40.864.6a.5.5,0,0,1,.514.857L28.371,9.518,43.824.6a.5.5,0,0,1,.51.859L38.766,4.843,46.121.6a.5.5,0,0,1,.515.856L25.84,14.438,49.814.6a.5.5,0,0,1,.51.859L37.253,9.423,52.541.6a.5.5,0,0,1,.511.859L35.736,12.033,55.546.6a.5.5,0,0,1,.507.861l-3.1,1.858L57.07.94a.5.5,0,0,1,.51.861L40.373,12.243,58.185,1.96a.5.5,0,0,1,.507.861l-11.2,6.748L58.633,3.136a.5.5,0,0,1,.509.86l-15.889,9.61L58.721,4.677a.5.5,0,0,1,.508.861l-8.14,4.888L58.722,6.02a.5.5,0,0,1,.511.858L32.482,23.313,58.724,8.163a.5.5,0,0,1,.507.861l-7.323,4.4,6.817-3.936a.5.5,0,0,1,.51.86L40.358,21.861l18.368-10.6a.5.5,0,0,1,.507.861l-2.408,1.446,1.9-1.1a.5.5,0,0,1,.51.859l-15.525,9.5,15.017-8.669a.5.5,0,0,1,.514.858L38.931,27.664l19.8-11.431a.5.5,0,0,1,.509.861l-3.3,2,2.794-1.614a.5.5,0,0,1,.51.86L54.352,21.32l4.379-2.528a.5.5,0,0,1,.513.858l-9.425,5.816,8.914-5.147a.5.5,0,0,1,.518.856L44.788,30.333l13.946-8.052a.5.5,0,0,1,.517.856l-9.994,6.289,9.478-5.472a.5.5,0,0,1,.52.854L48.91,31.416l9.827-5.673a.5.5,0,0,1,.516.857l-4.109,2.582,3.594-2.076a.5.5,0,0,1,.528.849l-10.3,6.869,9.77-5.64a.5.5,0,0,1,.532.844l-8.766,6,8.236-4.755a.5.5,0,0,1,.532.846l-5.593,3.82,5.063-2.922a.5.5,0,0,1,.537.841l-4.224,2.958,3.688-2.129a.5.5,0,0,1,.533.845l-1.059.731.527-.3a.5.5,0,0,1,.547.835L57.55,38.08l1.2-.69a.5.5,0,0,1,.595.8l-2.368,2.251,1.775-1.025a.5.5,0,0,1,.7.65l-.8,1.667.1-.059a.5.5,0,1,1,.5.865l-1.505.869a.5.5,0,0,1-.7-.649l.8-1.668-4.018,2.319a.5.5,0,0,1-.6-.8L55.6,40.359l-5.281,3.048a.5.5,0,0,1-.547-.835l1.741-1.284-3.672,2.12a.5.5,0,0,1-.533-.845l1.063-.732-2.734,1.578a.5.5,0,0,1-.537-.842l4.223-2.958-6.585,3.8a.5.5,0,0,1-.532-.846l5.586-3.815-8.076,4.663a.5.5,0,0,1-.532-.845l8.765-6L36.09,43.415a.5.5,0,0,1-.528-.849l10.305-6.874-13.38,7.724a.5.5,0,0,1-.515-.856l4.1-2.58-5.955,3.438a.5.5,0,0,1-.519-.854l10.345-6.609L27.02,43.419a.5.5,0,0,1-.517-.856l9.99-6.287L24.118,43.421a.5.5,0,0,1-.517-.856l14.461-9.157L20.716,43.423a.5.5,0,0,1-.513-.859l9.429-5.817L18.066,43.424a.5.5,0,0,1-.509-.86l4.9-2.983L15.8,43.425a.5.5,0,0,1-.509-.861l3.319-2.011-4.977,2.873a.5.5,0,0,1-.515-.858l20.31-12.651L10.02,43.428a.5.5,0,0,1-.511-.86l15.5-9.481L7.1,43.43a.5.5,0,0,1-.508-.862L8.98,41.132,5,43.431a.5.5,0,0,1-.511-.86L23.381,31.047,1.927,43.433A.494.494,0,0,1,1.677,43.5Z"/><path class="cls-4" d="M7.053,39.471a.5.5,0,0,1-.26-.927l12.025-7.33L5.43,38.943a.5.5,0,0,1-.514-.857L27.785,23.9,5.28,36.9a.5.5,0,0,1-.509-.861l7.248-4.38L5.28,35.544a.5.5,0,0,1-.508-.861l1.255-.754-.747.43a.5.5,0,0,1-.509-.86l7.444-4.511-6.935,4a.5.5,0,0,1-.51-.859l10.083-6.153L5.279,31.505a.5.5,0,0,1-.509-.86L9.5,27.77,5.279,30.207a.5.5,0,0,1-.515-.856L20.653,19.4,5.279,28.276a.5.5,0,0,1-.515-.856L18.4,18.852,5.279,26.428a.5.5,0,0,1-.515-.857l10.241-6.422L5.279,24.764a.5.5,0,0,1-.515-.857l6.954-4.35L5.279,23.273a.5.5,0,0,1-.52-.852L15.088,15.77,5.279,21.432a.5.5,0,0,1-.516-.856l3.43-2.162L5.279,20.1a.5.5,0,0,1-.528-.849l9.317-6.235L5.279,18.087a.5.5,0,0,1-.524-.851l4.824-3.173-4.3,2.483a.5.5,0,0,1-.53-.847l4.685-3.165-4.155,2.4a.5.5,0,0,1-.539-.84L9.4,10.781,5.279,13.16a.5.5,0,0,1-.56-.824l4.4-3.493L5.279,11.058a.5.5,0,0,1-.559-.826l1.648-1.3-1.089.628a.5.5,0,0,1-.592-.8L5.912,7.61l-.633.366a.5.5,0,0,1-.7-.651l.553-1.144a.527.527,0,0,1-.451-.25.5.5,0,0,1,.183-.684L5.992,4.6a.5.5,0,0,1,.7.651L6.186,6.3,9.132,4.6a.5.5,0,0,1,.593.8L8.5,6.548,11.878,4.6a.5.5,0,0,1,.559.825l-1.65,1.3L14.471,4.6a.5.5,0,0,1,.56.824l-4.4,3.491L18.112,4.6a.5.5,0,0,1,.539.84L13.99,8.748,21.181,4.6a.5.5,0,0,1,.53.846L17.026,8.609,23.977,4.6a.5.5,0,0,1,.524.85L19.672,8.623,26.646,4.6a.5.5,0,0,1,.529.847L17.859,11.68,30.127,4.6a.5.5,0,0,1,.517.855L27.2,7.621,32.44,4.6a.5.5,0,0,1,.521.852L22.635,12.1l13-7.5a.5.5,0,0,1,.516.856L29.184,9.809,38.212,4.6a.5.5,0,0,1,.516.856l-10.239,6.42L41.094,4.6a.5.5,0,0,1,.515.856L27.976,14.019,44.3,4.6a.5.5,0,0,1,.516.856l-15.9,9.957L47.641,4.6a.5.5,0,0,1,.509.86L43.434,8.322,49.888,4.6a.5.5,0,0,1,.51.859L40.331,11.6l12.131-7a.5.5,0,0,1,.509.86L45.5,9.983l8.87-5.121a.5.5,0,0,1,.508.862l-1.213.728,1.052-.606a.5.5,0,0,1,.509.86l-7.248,4.381L54.72,7.2a.5.5,0,0,1,.513.858L32.368,22.235,54.72,9.331a.5.5,0,0,1,.509.859l-12.04,7.339L54.72,10.873a.5.5,0,0,1,.511.858L41.7,20.04l13.022-7.518a.5.5,0,0,1,.512.859L41.557,21.832l13.164-7.6a.5.5,0,0,1,.516.856l-17.1,10.793,16.58-9.572a.5.5,0,0,1,.511.858l-4.893,3.006,4.382-2.529a.5.5,0,0,1,.514.856l-9.358,5.853,8.844-5.106a.5.5,0,0,1,.523.852L40.992,29.4l13.729-7.925a.5.5,0,0,1,.515.856l-3.871,2.427,3.356-1.938a.5.5,0,0,1,.518.855L49.61,27.268l5.111-2.951a.5.5,0,0,1,.523.852l-6.669,4.36,6.146-3.548a.5.5,0,0,1,.528.849l-6.207,4.153,5.679-3.278a.5.5,0,0,1,.545.836l-7.35,5.38,6.805-3.929a.5.5,0,0,1,.535.843l-2.527,1.758,1.992-1.15a.5.5,0,0,1,.539.841l-1.255.89.716-.413a.5.5,0,0,1,.575.812l-2.632,2.249,2.057-1.186a.5.5,0,0,1,.642.743L53.9,37.229l.823-.474a.5.5,0,0,1,.5.865L52.134,39.4a.5.5,0,0,1-.643-.743l1.465-1.85L48.463,39.4a.5.5,0,0,1-.575-.812l2.632-2.249-5.3,3.061a.5.5,0,0,1-.539-.84l1.247-.884L42.934,39.4a.5.5,0,0,1-.536-.842L44.927,36.8,40.42,39.4a.5.5,0,0,1-.545-.836l7.351-5.38L36.458,39.4a.5.5,0,0,1-.528-.848L42.141,34.4l-8.669,5a.5.5,0,0,1-.524-.851L39.61,34.2,30.591,39.4a.5.5,0,0,1-.519-.854l5.633-3.595L28,39.4a.5.5,0,0,1-.516-.856l3.883-2.434-5.7,3.29a.5.5,0,0,1-.523-.851l14.246-9.3L21.809,39.4a.5.5,0,0,1-.515-.856l9.375-5.863L19.029,39.4a.5.5,0,0,1-.511-.858l4.882-3L16.718,39.4a.5.5,0,0,1-.517-.855l17.1-10.8L13.121,39.4a.5.5,0,0,1-.513-.858l13.678-8.452L10.159,39.4a.5.5,0,0,1-.512-.858l13.517-8.3L7.3,39.4A.5.5,0,0,1,7.053,39.471Z"/><path class="cls-5" d="M29.92,49.453a.5.5,0,0,1-.353-.854l.319-.318-1.137.657a.5.5,0,0,1-.594-.8l1-.942-1.368.79a.5.5,0,0,1-.6-.794l1.129-1.08-.986.57a.5.5,0,0,1-.64-.747l.98-1.214a.5.5,0,0,1-.24-.933l1.937-1.118a.5.5,0,0,1,.64.746l-.854,1.059,2.262-1.306a.5.5,0,0,1,.6.794L30.88,45.049l1.467-.847a.5.5,0,0,1,.593.8l-1,.94.764-.44a.5.5,0,0,1,.6.787l-.665.66a.5.5,0,0,1,.152.923L30.17,49.386A.489.489,0,0,1,29.92,49.453Z"/><path class="cls-2" d="M33.371,34.471a.5.5,0,0,1-.279-.915l5.541-3.729L30.88,34.3a.5.5,0,0,1-.532-.846l9.359-6.386L29.436,33a.5.5,0,0,1-.524-.851l6.775-4.432-6.407,3.7a.5.5,0,0,1-.528-.848l9.518-6.379-8.99,5.19a.5.5,0,0,1-.517-.856l.757-.478-.241.139a.5.5,0,0,1-.532-.846l9.219-6.3-8.687,5.015a.5.5,0,0,1-.539-.841l7.528-5.326-6.989,4.034a.5.5,0,0,1-.527-.849l1.106-.736-.579.334a.5.5,0,0,1-.558-.826l4.885-3.825-4.327,2.5a.5.5,0,0,1-.542-.838l.45-.325A.5.5,0,0,1,28.7,18.5l1.716-1.507-1.136.656a.5.5,0,0,1-.676-.693l.916-1.508a.5.5,0,0,1-.444-.893l1.632-.943a.5.5,0,0,1,.677.693l-.912,1.5,3.82-2.2a.5.5,0,0,1,.58.808l-1.715,1.506L37.168,13.6a.5.5,0,0,1,.542.838l-.37.267L39.255,13.6a.5.5,0,0,1,.558.826L34.926,18.25,42.985,13.6a.5.5,0,0,1,.528.848l-1.109.738L45.152,13.6a.5.5,0,0,1,.539.841l-7.528,5.327,10.651-6.15a.5.5,0,0,1,.533.846l-9.223,6.308L50.5,14.776a.5.5,0,0,1,.517.856l-.74.468.439-.253a.5.5,0,0,1,.528.847l-9.511,6.375,8.983-5.186a.5.5,0,0,1,.523.85l-6.781,4.438,6.259-3.613a.5.5,0,0,1,.532.845l-9.359,6.386,8.827-5.1a.5.5,0,0,1,.529.848l-5.543,3.73,5.014-2.894a.5.5,0,0,1,.534.844l-4.549,3.142,4.015-2.317a.5.5,0,0,1,.553.83l-4.949,3.779,4.4-2.537a.5.5,0,0,1,.585.8l-3.594,3.236,3.009-1.737a.5.5,0,0,1,.572.814l-.572.484a.5.5,0,0,1,.6.786l-.407.407a.5.5,0,0,1,.375.247.5.5,0,0,1-.183.683l-2.7,1.56a.5.5,0,0,1-.6-.786l.136-.137-1.6.923a.5.5,0,0,1-.572-.814l.569-.481-2.245,1.3a.5.5,0,0,1-.585-.8l3.6-3.238-7,4.041a.5.5,0,0,1-.554-.83L44.494,29.8,36.513,34.4a.5.5,0,0,1-.534-.843l4.551-3.145L33.621,34.4A.5.5,0,0,1,33.371,34.471Z"/><path class="cls-5" d="M23.692,32.372a.5.5,0,0,1-.25-.933l10.87-6.276a.5.5,0,0,1,.575.814L32.675,27.86l1.967-1.134a.5.5,0,0,1,.5.865l-6.711,3.874a.5.5,0,0,1-.575-.814l2.21-1.881-6.124,3.535A.494.494,0,0,1,23.692,32.372Z"/><path class="cls-5" d="M12.275,39.495A.5.5,0,0,1,12,38.578l7.9-5.238L10.28,38.891a.5.5,0,0,1-.529-.848l6.532-4.4-6,3.465a.5.5,0,0,1-.524-.85l.422-.277a.5.5,0,0,1-.446-.88l4.349-3.212-3.8,2.194a.5.5,0,0,1-.58-.809L13.436,30l-2.871,1.657a.5.5,0,0,1-.59-.8l1.639-1.527a.5.5,0,0,1-.071-.9l2.78-1.606a.5.5,0,0,1,.591.8l-1.038.967,3.458-2a.5.5,0,0,1,.58.808l-3.736,3.276L21.253,26.6a.5.5,0,0,1,.547.835l-4.348,3.212,7.441-4.295a.5.5,0,0,1,.524.85l-.241.158,3.19-1.841a.5.5,0,0,1,.53.847l-6.532,4.4L33.32,24.435a.5.5,0,0,1,.527.849L23.178,32.362a.5.5,0,0,1,.1.856l-1.7,1.28,1.15-.664a.5.5,0,0,1,.558.827l-.44.343a.5.5,0,0,1,.5.83l-.867.886.265-.154a.5.5,0,0,1,.736.554l-.277,1.1a.5.5,0,0,1,.049.89l-.5.289a.5.5,0,0,1-.735-.553l.207-.829L19.813,39.41a.5.5,0,0,1-.607-.782l.866-.884-2.9,1.673a.5.5,0,0,1-.558-.827l.357-.277-1.922,1.109a.5.5,0,0,1-.552-.832l1.7-1.282-3.673,2.12A.494.494,0,0,1,12.275,39.495Z"/><path class="cls-6" d="M16.46,17.488a.5.5,0,0,1-.328-.877l3.549-3.086-6.4,3.7a.5.5,0,0,1-.539-.84l.83-.59-.292.168a.5.5,0,0,1-.567-.819l1.982-1.626-1.415.816a.5.5,0,0,1-.663-.714l1.35-1.98-.038.021a.5.5,0,1,1-.5-.865l1.933-1.116a.5.5,0,0,1,.663.714l-1.348,1.98,4.8-2.773a.5.5,0,0,1,.568.819l-1.983,1.626L22.3,9.6a.5.5,0,0,1,.539.84l-.825.586,1.659-.958a.5.5,0,0,1,.578.81L20.7,13.962l1.254-.724a.5.5,0,0,1,.625.763l-.9,1.02L21.72,15a.5.5,0,0,1,.727.579l-.213.694a.484.484,0,0,1,.168.174.5.5,0,0,1-.182.683l-.473.273a.5.5,0,0,1-.727-.579l.1-.322-1.575.909a.5.5,0,0,1-.625-.763l.9-1.021L16.71,17.421A.491.491,0,0,1,16.46,17.488Z"/><path class="cls-7" d="M18.04,29.462a.5.5,0,0,1-.4-.8L18.132,28l-1.275.735a.5.5,0,0,1-.61-.779l.9-.937-.849.49a.5.5,0,0,1-.651-.732l1.239-1.66-.609.351a.5.5,0,0,1-.725-.588l.219-.671a.5.5,0,0,1,.006-.863l.507-.292a.5.5,0,0,1,.726.589l-.1.3,1.578-.91a.5.5,0,0,1,.651.732L17.9,25.428l1.818-1.049a.5.5,0,0,1,.61.779l-.9.938.293-.169a.5.5,0,0,1,.651.73l-.643.868a.5.5,0,0,1,.191.929l-1.63.941A.5.5,0,0,1,18.04,29.462Z"/><path class="cls-8" d="M18.1,24.452a.5.5,0,0,1-.339-.867l.714-.661L16.608,24a.5.5,0,0,1-.55-.832l.97-.73-1.482.856a.5.5,0,0,1-.569-.818l3.261-2.709-3.627,2.094a.5.5,0,0,1-.591-.8l2.865-2.678-3.286,1.9a.5.5,0,0,1-.59-.8l2.114-1.965-2.7,1.561a.5.5,0,0,1-.662-.715l.6-.881a.522.522,0,0,1-.474-.248.5.5,0,0,1,.182-.682l1.639-.947a.5.5,0,0,1,.662.715l-.541.79,4.629-2.672a.5.5,0,0,1,.59.8l-2.115,1.966,3.229-1.864a.5.5,0,0,1,.592.8l-2.865,2.678,4.949-2.856a.5.5,0,0,1,.569.817l-3.261,2.709,3.543-2.046a.5.5,0,0,1,.551.832l-1.99,1.5a.493.493,0,0,1,.264.183.5.5,0,0,1-.064.664l-1.04.961a.5.5,0,0,1,.2.93l-3.25,1.876A.494.494,0,0,1,18.1,24.452Z"/><path class="cls-9" d="M59.728,32.044V6.31c0-.764.014-1.529,0-2.293A3.452,3.452,0,0,0,56.261.549c-1.745-.075-3.509,0-5.255,0H24.318c-6.58,0-13.162-.056-19.742,0A4.277,4.277,0,0,0,.813,2.318,4.7,4.7,0,0,0,.272,5.064v40.11a4.6,4.6,0,0,0,.553,2.765c1.318,1.955,4.047,1.512,6.089,1.512H21.687q-.612,2.452-1.226,4.9l-.082.329h-.562c-2.141,0-4.4.135-5.772,2.081-.637.9-1.3,2.439.247,2.551.443.032.9,0,1.346,0H45.031a1.217,1.217,0,0,0,.5-.064c.654-.2,1.213-.413,1.123-1.2a3.949,3.949,0,0,0-1.472-2.428,4.819,4.819,0,0,0-3.093-.938c-.8,0-1.6,0-2.4,0q-.642-2.57-1.285-5.139l-.023-.094H55.729a.7.7,0,0,0,.076-.012c.038,0,.065.009.108.007a3.823,3.823,0,0,0,3.815-3.665c.024-.811,0-1.626,0-2.436Zm-58-28.063c.115-2.973,2.7-2.53,4.752-2.53H53.271c2.112,0,4.845-.3,5,2.7.111,2.12,0,4.276,0,6.4v32H30.93a3.964,3.964,0,0,0-1.565,0H1.728V23.173C1.728,16.793,1.48,10.358,1.728,3.981ZM29.175,43.665c.016,0,.152-.048.15-.048.052-.014.1-.027.157-.039l.054-.013a.129.129,0,0,0,.029,0,2.054,2.054,0,0,1,.761.027,2.587,2.587,0,0,1,1.939,2.463,2.619,2.619,0,0,1-.425,1.46,2.193,2.193,0,0,1-1.032.83,1.93,1.93,0,0,1-.621.114,2.231,2.231,0,0,1-.658-.086,2.472,2.472,0,0,1-1.221-.834,2.626,2.626,0,0,1-.23-2.918,2.313,2.313,0,0,1,.437-.547,2.257,2.257,0,0,1,.55-.359C29.1,43.7,29.138,43.68,29.175,43.665ZM5.412,48.549A8.2,8.2,0,0,1,3.791,48.5c-1.619-.336-2.063-1.847-2.063-3.263V43.454H27.49a3.626,3.626,0,0,0-.378.376,3.471,3.471,0,0,0-.352,4.028,3.227,3.227,0,0,0,.57.691H5.412ZM41.55,55.316a3.878,3.878,0,0,1,1.727.446,3.924,3.924,0,0,1,1.381,1.283c.091.141.608,1.353.719,1.639H15.412a1.43,1.43,0,0,1-.443,0c-.444-.2-.077-1.068.1-1.45a3.311,3.311,0,0,1,3.1-1.918c.719-.026,1.441-.032,2.162-.044.156.163.635.132.995-.019,3.453-.029,6.917.063,10.363.063h6.686a1.065,1.065,0,0,0,.736,0h.521C40.266,55.316,40.912,55.285,41.55,55.316Zm-3.459-.861.057.229c-.541,0-1.082,0-1.623,0H21.779l1.26-5.039.048-.194h6.054a4.158,4.158,0,0,0,1.529.008l.027-.008H36.84Zm18.026-5.906H32.492a3.571,3.571,0,0,0,1.243-2.6,3.525,3.525,0,0,0-1.071-2.493H58.272V45.4C58.272,46.855,57.9,48.433,56.117,48.549Z"/><path class="cls-9" d="M4.265,15.709V38.05a.41.41,0,0,0,.018.071.354.354,0,0,0-.007.073c.288,1.786,2.737,1.356,4.067,1.356h41.32c1.4,0,2.851.106,4.251,0,2.3-.173,1.821-2.644,1.821-4.255V25.18c0-6.3.2-12.631,0-18.927-.056-1.79-1.481-1.8-2.863-1.8H45.8c-13.077,0-26.179-.25-39.254,0A2.177,2.177,0,0,0,4.5,5.316a3.406,3.406,0,0,0-.232,1.8ZM15.724,38.45V33.806c0-.183-1.448.006-1.448.388V38.45H10.735V33.3a5.949,5.949,0,0,1,.979-3.538,5.148,5.148,0,0,1,3.627-2.171,2.132,2.132,0,0,0,.319.785c.978,1.429,3.239,1.159,4.366.069a2.24,2.24,0,0,0,.624-1.1,27.044,27.044,0,0,0,6.167-.6c.691-.166,1.376-.362,2.06-.567a1.629,1.629,0,0,0,.46-.137c.767-.235,1.532-.479,2.3-.708a2.167,2.167,0,0,1,1.669-.083.378.378,0,0,0,.166.1,1.8,1.8,0,0,1,.3.265,1.841,1.841,0,0,1-.566,2.911,34.126,34.126,0,0,1-4.136,1.972,1.654,1.654,0,0,0-.4.125c-.24.076-.478.167-.721.225-1.385.328-2.816.511-4.228.729v-.767c0-.084-.223-.1-.253-.1a1.784,1.784,0,0,0-.529.074,1.724,1.724,0,0,0-.5.2c-.076.05-.171.107-.171.209V38.45Zm7.5-27.887c.074.259-.65,1.052-.74,1.175a6.553,6.553,0,0,0-.868,1.577,6.26,6.26,0,0,0-.337,2.1,4.715,4.715,0,0,1-1.314-.443c-.539-.284-.944-.965-1.533-1.084-.8-.163-1.176.37-1.712.817a4.374,4.374,0,0,1-2.575.816c-.125.007.131,0,.122,0-.179.008-.35.012-.527.035v-2.09a4.5,4.5,0,0,1,.1-1.28,2.246,2.246,0,0,1,1.527-1.553,8.442,8.442,0,0,1,2.078-.069H23.22ZM13.212,16.781a.846.846,0,0,0,.363-.213,1.52,1.52,0,0,1,.456-.093,7.33,7.33,0,0,0,1.852-.325,6.123,6.123,0,0,0,1.259-.541,4.444,4.444,0,0,0,.577-.393c.035-.028.111-.1.187-.18a3.749,3.749,0,0,0,.277.287,3.973,3.973,0,0,0,.572.389,5.684,5.684,0,0,0,1.35.53,6.816,6.816,0,0,0,1.632.238,1.635,1.635,0,0,1,1.494,1.987c-.221,1.057-1.354.964-1.841,1.788A8.894,8.894,0,0,0,21,21.493a3.516,3.516,0,0,1-.79,1.177,2.914,2.914,0,0,1-2.441.819,3.5,3.5,0,0,1-2.282-1.364,3.608,3.608,0,0,1-.611-1.216,2.177,2.177,0,0,0-.461-1.1c-.313-.3-.759-.362-1.089-.641a1.7,1.7,0,0,1-.591-1.434A1.347,1.347,0,0,1,13.212,16.781Zm6.064,7.475v2.611a2.664,2.664,0,0,1-.1.865,1.669,1.669,0,0,1-.463.726,2.085,2.085,0,0,1-.177.132c.029-.021-.041.017-.045.022l-.076.026-.042.007c-.025,0-.047,0-.019,0a1.7,1.7,0,0,1-.712-.2,1.861,1.861,0,0,1-.641-.622,4.212,4.212,0,0,1-.281-2.216V24.356A5.1,5.1,0,0,0,19.276,24.256Zm10.448-8.444c.121-1.441.99-1.422,2.032-1.422h16.02c1.009,0,2.04.024,2.414,1.228a6.991,6.991,0,0,1,.086,1.971V26.14c0,1.988.167,4.056,0,6.038-.114,1.345-.906,1.432-1.925,1.432H34.83c-1.065,0-2.141.043-3.2,0-1.672-.069-1.879-1.369-1.9-2.721,1.435-.554,2.8-1.288,4.184-1.98a2.739,2.739,0,0,0,1.8-2.155,2.123,2.123,0,0,0-.99-1.976V20.806c0-.11-.208-.173-.277-.186a1.213,1.213,0,0,0-.539.036c-.26.076-.632.222-.632.538v3.158H33.26a8.643,8.643,0,0,0-2.272.542l-1.264.379V18.478C29.724,17.6,29.651,16.687,29.724,15.812ZM5.735,5.991c.2-.865,2.289-.441,2.971-.441H52.092a7.23,7.23,0,0,1,1.644,0c.96.251.529,2.677.529,3.453V37.494c0,.375.067.782-.315.956a4.7,4.7,0,0,1-1.44,0H23.724V32.2c1.219-.2,2.439-.383,3.65-.614.3-.058.6-.129.9-.209a3.352,3.352,0,0,0,.328,1.907,2.483,2.483,0,0,0,2.128,1.109c.684.026,1.374,0,2.058,0h9.843c2.024,0,4.062.072,6.085,0a2.849,2.849,0,0,0,3.011-2.722c.02-.927,0-1.856,0-2.783V18.9c0-.969.024-1.941,0-2.91a2.365,2.365,0,0,0-2.451-2.382c-5.428-.2-10.9,0-16.333,0a9.637,9.637,0,0,0-2.607.137c-1.677.483-2.057,1.749-2.057,3.278v8.681l-.077.023a20.237,20.237,0,0,1-4.728.891c-.913.051-1.831.037-2.747.033,0-.255,0-.51,0-.765V23.571a4.623,4.623,0,0,0,1.49-1.63,4.516,4.516,0,0,0,.387-1,2.278,2.278,0,0,1,.079-.375c.144-.3.323-.3.609-.451a2.669,2.669,0,0,0,1.354-1.6,2.361,2.361,0,0,0-1.909-2.925,5.96,5.96,0,0,1,.9-3.442c.321-.479,1-.961,1.071-1.554a.953.953,0,0,0-.829-1.026.723.723,0,0,0-.445-.132H17.555a9.187,9.187,0,0,0-2.54.153,3.743,3.743,0,0,0-2.751,3.555c-.007,1.011,0,2.023,0,3.034a2.616,2.616,0,0,0-.832,1.092,2.3,2.3,0,0,0,.078,1.863c.329.663.833.861,1.429,1.214.527.312.569,1.3.865,1.842a4.4,4.4,0,0,0,1.314,1.462c.051.037.105.065.158.1v2.138c0,.211-.008.424-.011.638a6.856,6.856,0,0,0-5.758,4.832,8.945,8.945,0,0,0-.242,2.476V38.45H6.856c-.591,0-.982.146-1.121-.6V7.671A8.063,8.063,0,0,1,5.735,5.991Z"/><path class="cls-9" d="M36.94,18.544h9c.319,0,.761-.247.8-.595.037-.382-.381-.494-.675-.494h-9c-.319,0-.761.248-.8.6C36.228,18.433,36.646,18.544,36.94,18.544Z"/><path class="cls-9" d="M46.3,21.649h-8a1.3,1.3,0,0,0-.963.371c-.185.271.16.33.367.33h8a1.3,1.3,0,0,0,.963-.37C46.85,21.709,46.505,21.649,46.3,21.649Z"/></svg>
