<svg height="504pt" viewBox="0 -3 504.27381 504" width="504pt" xmlns="http://www.w3.org/2000/svg"><path d="m105.878906 397.070312c-1.882812.003907-3.539062-1.25-4.046875-3.066406-.507812-1.816406.261719-3.746094 1.875-4.722656l44.257813-26.796875-58.929688 33.992187c-1.984375 1.097657-4.480468.421876-5.640625-1.527343-1.15625-1.949219-.558593-4.464844 1.351563-5.683594l113.484375-69.238281-132.445313 76.449218c-1.976562 1.039063-4.421875.351563-5.5625-1.566406-1.144531-1.917968-.585937-4.394531 1.273438-5.636718l166.574218-102.28125-189.664062 109.484374c-1.980469 1.089844-4.464844.417969-5.625-1.519531-1.160156-1.933593-.582031-4.441406 1.308594-5.675781l228.496094-141.535156-245.046876 141.46875c-1.980468 1.046875-4.433593.351562-5.570312-1.578125-1.140625-1.925781-.566406-4.410157 1.304688-5.640625l108.746093-65.644532-110.113281 63.582032c-1.984375 1.078125-4.464844.394531-5.617188-1.550782-1.148437-1.941406-.554687-4.449218 1.34375-5.667968l175.742188-106.984375-173.15625 99.96875c-1.976562 1.027343-4.410156.332031-5.546875-1.585938s-.574219-4.386719 1.273437-5.625l183.816407-112.054687-179.542969 103.6875c-1.984375 1.078125-4.464844.390625-5.617188-1.550782-1.148437-1.945312-.554687-4.449218 1.34375-5.667968l153.960938-93.386719-149.6875 86.425781c-1.996094 1.179688-4.570312.511719-5.75-1.484375-1.175781-1.996093-.511719-4.570312 1.488281-5.75l70.871094-42.5625-66.609375 38.449219c-1.976562 1.03125-4.410156.335938-5.546875-1.582031s-.574219-4.386719 1.273437-5.625l174.886719-106.40625-170.613281 98.457031c-1.976562 1.027344-4.410156.332031-5.546875-1.585938-1.136719-1.914062-.574219-4.386718 1.273437-5.625l175.980469-107.242187-171.707031 99.09375c-1.976562 1.039063-4.417969.351563-5.5625-1.566406-1.140625-1.917969-.582031-4.394531 1.273438-5.636719l195.828124-120.175781-191.539062 110.589843c-1.988281 1.109376-4.5.429688-5.65625-1.535156-1.15625-1.960937-.539062-4.484375 1.394531-5.691406l37.917969-22.8125-33.65625 19.429688c-1.984375 1.097656-4.476562.421874-5.636719-1.527344-1.160156-1.945313-.5625-4.460938 1.347657-5.683594l146.71875-89.96875-142.4375 82.257812c-1.285157.769532-2.886719.796876-4.199219.070313s-2.136719-2.101563-2.160157-3.601563c-.027343-1.5.75-2.898437 2.035157-3.671874l187.175781-117.28125-182.851562 105.582031c-1.988282 1.105469-4.5.425781-5.65625-1.535157-1.15625-1.960937-.539063-4.488281 1.390624-5.691406l26.769532-16.226562-22.503906 12.992187c-1.992188 1.1875-4.570313.53125-5.753907-1.464843-1.183593-1.992188-.527343-4.566407 1.464844-5.75l76.648437-47.003907-72.402343 41.796875c-1.976563 1.074219-4.449219.394532-5.601563-1.539062-1.15625-1.929688-.578125-4.429688 1.304688-5.660156l85.253906-52.710938-80.914062 46.691406c-1.984376 1.097656-4.480469.421875-5.636719-1.527344-1.160157-1.945312-.5625-4.460937 1.347656-5.683593l43.703125-26.859375-39.449219 22.757812c-1.285156.773438-2.882812.804688-4.199219.078125-1.3125-.722656-2.140624-2.09375-2.167968-3.59375-.03125-1.503906.746094-2.902343 2.027344-3.679687l132.332031-85.738282-127.957031 73.863282c-1.964844 1.097656-4.449219.449218-5.625-1.472656-1.175782-1.921876-.628907-4.425782 1.242187-5.679688l105.933594-68.828125-101.558594 58.628906c-1.984375 1.117188-4.496094.453125-5.664063-1.5-1.167968-1.953125-.566406-4.484375 1.359376-5.699219l3.984374-2.476562c-1.96875.863281-4.269531.097656-5.332031-1.773438-1.0625-1.871093-.539062-4.238281 1.210938-5.488281l92.101562-62.371093-87.652343 50.621093c-1.964844 1.117188-4.460938.476563-5.648438-1.449219-1.183594-1.921874-.632812-4.441406 1.25-5.695312l42.925781-28.140625-38.527343 22.25c-1.949219 1.054687-4.382813.410156-5.558594-1.472656-1.171875-1.878907-.679688-4.351563 1.125-5.636719l39.863281-26.765625-35.429687 20.460937c-1.964844 1.167969-4.5.550782-5.707032-1.390624-1.207031-1.941407-.640625-4.488282 1.273438-5.734376l20.617187-13.832031-16.183593 9.332031c-1.917969 1.078126-4.34375.492188-5.554688-1.34375-1.214844-1.835937-.804688-4.296874.9375-5.636718l39.800781-29.984375-35.183593 20.3125c-1.890626 1.082031-4.296876.535156-5.535157-1.257813-1.238281-1.792968-.898437-4.238281.785157-5.625l26.859374-21.972656-22.109374 12.765625c-1.851563 1.058594-4.199219.5625-5.464844-1.152344-1.265625-1.71875-1.039063-4.109375.519531-5.5625l14.011719-12.890625-8.890625 5.136719c-1.792969 1.03125-4.070313.597656-5.363281-1.015625-1.296876-1.613281-1.21875-3.929688.175781-5.457031l6.765625-7.394531c-.851563-.355469-1.5625-.980469-2.023438-1.777344-1.15625-2.007813-.46875-4.574219 1.535156-5.734375l16.234376-9.375c1.792968-1.03125 4.070312-.601563 5.363281 1.015625 1.296875 1.613281 1.21875 3.929687-.175781 5.457031l-3.082032 3.355469 18.171875-10.457032c1.851563-1.058593 4.203125-.5625 5.464844 1.152344 1.265625 1.71875 1.042969 4.109375-.519531 5.5625l-14.007813 12.875 33.96875-19.589844c1.890625-1.082031 4.296875-.535156 5.535157 1.257813 1.238281 1.796875.894531 4.238281-.785157 5.625l-26.859375 21.964844 49.972656-28.847657c1.921876-1.101562 4.363282-.519531 5.585938 1.324219s.800781 4.320313-.960938 5.65625l-39.816406 29.949219 64.050782-36.929688c1.957031-1.097656 4.429687-.460937 5.613281 1.441407 1.1875 1.902343.664062 4.402343-1.183594 5.675781l-20.605469 13.808594 36.277344-20.925782c1.957031-1.136718 4.464844-.511718 5.664062 1.410157 1.199219 1.921875.65625 4.445312-1.222656 5.707031l-39.820312 26.683594 58.59375-33.800782c1.964844-1.117187 4.464844-.476562 5.648437 1.445313 1.183594 1.925781.632813 4.445313-1.25 5.695313l-42.980469 28.109374 61.167969-35.25c1.960938-1.160156 4.488281-.546874 5.695313 1.378907 1.210937 1.929687.660156 4.472656-1.238282 5.730469l-92.089843 62.296874 120.25-69.40625c1.988281-1.191406 4.566406-.546874 5.757812 1.441407 1.191407 1.988281.546875 4.566406-1.441406 5.757812l-3.578125 2.21875 16.320312-9.417969c1.96875-1.148437 4.492188-.511718 5.683594 1.429688 1.191406 1.945312.617188 4.484375-1.296875 5.71875l-105.941406 68.84375 131.667969-75.992188c1.96875-1.097656 4.449218-.449218 5.625 1.46875 1.179687 1.921876.628906 4.429688-1.242188 5.679688l-132.355468 85.757812 160.96875-92.90625c1.988281-1.1875 4.566406-.535156 5.753906 1.457032 1.1875 1.988281.535156 4.566406-1.457032 5.753906l-43.730468 26.855469 59.058594-34.066407c1.980468-1.117187 4.492187-.453124 5.660156 1.5 1.167968 1.953126.566406 4.484376-1.355469 5.699219l-85.152344 52.628907 103.667969-59.828126c1.984375-1.097656 4.476562-.421874 5.636719 1.527344 1.160156 1.945313.5625 4.460938-1.347657 5.683594l-76.65625 47 93.953126-54.210938c1.996093-1.179687 4.570312-.519531 5.75 1.476563 1.179687 1.996094.519531 4.570313-1.476563 5.75l-26.882813 16.273437 40.722657-23.5c1.988281-1.195312 4.566406-.554687 5.761719 1.429688 1.199218 1.988281.558593 4.566406-1.429688 5.761719l-187.222656 117.257812 215.609375-124.449219c1.992187-1.183593 4.570312-.53125 5.753906 1.464844 1.183594 1.992188.527344 4.566406-1.464844 5.753906l-146.589843 89.84375 168.179687-97.0625c1.289063-.761718 2.890625-.773437 4.195313-.035156 1.304687.738282 2.117187 2.117188 2.128906 3.617188.011718 1.5-.777344 2.890625-2.070313 3.652344l-38.140625 22.898437 52.234375-30.132813c1.992188-1.1875 4.570313-.535156 5.757813 1.460938 1.183594 1.992188.53125 4.570312-1.460938 5.757812l-195.851562 120.191407 208.691406-120.496094c1.992188-1.132813 4.519531-.460937 5.6875 1.507813s.542969 4.511718-1.40625 5.710937l-175.808594 107.132813 178.035156-102.800782c1.988282-1.132812 4.519532-.464844 5.6875 1.503906 1.167969 1.96875.539063 4.511719-1.410156 5.714844l-174.84375 106.429688 171.867188-99.230469c1.996094-1.175781 4.570312-.511719 5.75 1.488281 1.175781 1.996094.511718 4.570313-1.488282 5.75l-70.863281 42.5625 66.601563-38.449218c1.984375-1.082032 4.464844-.394532 5.613281 1.546874 1.152344 1.945313.558594 4.449219-1.34375 5.667969l-153.960937 93.386719 149.691406-86.425781c1.984375-1.082031 4.464844-.394531 5.613281 1.546875 1.152344 1.945312.558594 4.449218-1.34375 5.671875l-183.816406 112.050781 179.546875-103.683594c1.984375-1.078125 4.464844-.394531 5.613281 1.546875 1.152344 1.945313.558594 4.449219-1.34375 5.671875l-175.832031 107.03125 171.5625-99.042968c1.996094-1.179688 4.570312-.515626 5.75 1.480468 1.179687 1.992188.515625 4.566406-1.480469 5.746094l-108.742187 65.621094 104.472656-60.316406c1.980468-1.117188 4.492187-.449219 5.660156 1.503906s.566406 4.480468-1.355469 5.699218l-228.503906 141.570313 224.199219-129.441406c1.992187-1.183594 4.566406-.527344 5.753906 1.464843 1.183594 1.992188.527344 4.570313-1.464844 5.753907l-166.550781 102.273437 162.261719-93.6875c1.988281-1.132812 4.519531-.464844 5.6875 1.503906 1.167968 1.972657.539062 4.511719-1.40625 5.714844l-113.472656 69.253906 109.191406-63.042968c1.996094-1.179688 4.570312-.519532 5.75 1.476562 1.179687 1.996094.515625 4.570313-1.480469 5.75l-44.484375 26.925782 40.207031-23.214844c1.976563-1.058594 4.4375-.371094 5.585938 1.558594 1.144531 1.929687.570312 4.417968-1.308594 5.648437l-89.925781 55.097656 85.664062-49.464843c1.996094-1.179688 4.570313-.515626 5.75 1.476562 1.179688 1.996094.515625 4.570312-1.476562 5.75l-30.78125 18.710938 26.507812-15.300782c1.980469-1.117187 4.492188-.453125 5.660156 1.5 1.167969 1.953125.566407 4.484375-1.355468 5.699219l-99.453125 61.71875 95.148437-54.9375c1.976563-1.105469 4.476563-.445313 5.644532 1.496094 1.171874 1.941406.589843 4.460937-1.3125 5.691406l-117.570313 74.273437 113.238281-65.378906c1.984375-1.09375 4.476563-.417968 5.636719 1.527344 1.160156 1.949219.5625 4.464844-1.347656 5.683594l-18.082031 11.121094 13.792968-7.964844c1.976563-1.089844 4.460938-.417969 5.621094 1.519531 1.164062 1.933594.585938 4.441406-1.308594 5.675781l-47.539062 29.644532 43.226562-24.953126c1.964844-1.117187 4.460938-.476562 5.648438 1.445313 1.183594 1.925781.632812 4.445313-1.25 5.695313l-103.753906 68.0625 99.355468-57.328126c1.957032-1.09375 4.429688-.460937 5.613282 1.445313 1.1875 1.902344.664062 4.402344-1.183594 5.675781l-91.546875 61.464844 87.117187-50.304688c1.953125-1.113281 4.441406-.488281 5.636719 1.421876 1.191406 1.90625.667969 4.417968-1.1875 5.6875l-67.746094 45.753906 63.296875-36.527344c1.945313-1.117188 4.425782-.507812 5.628906 1.386719 1.203126 1.894531.707032 4.398437-1.128906 5.6875l-57.347656 39.976562 52.878906-30.507812c1.925782-1.109375 4.378906-.53125 5.601563 1.320312 1.222656 1.855469.792969 4.339844-.984375 5.671875l-49.746094 37.230469 45.128906-26.019531c1.941406-1.105469 4.40625-.5 5.609375 1.378906 1.207031 1.875.734375 4.367188-1.074219 5.671875l-15.066406 10.738281 10.5-6.0625c1.882813-1.0625 4.261719-.519531 5.5 1.253906 1.238282 1.769532.929688 4.195313-.714844 5.597657l-22.101562 18.464843 17.316406-9.988281c1.851563-1.128906 4.257813-.65625 5.550782 1.085938 1.292968 1.742187 1.042968 4.183593-.574219 5.628906l-10.191407 9.59375 4.316407-2.519531c1.296875-.761719 2.90625-.769532 4.210937-.019532 1.308594.75 2.109375 2.144532 2.109375 3.648438-.003906 1.507812-.816406 2.894531-2.125 3.640625l-35.367187 20.429687c-1.855469 1.125-4.261719.65625-5.554688-1.085937-1.289062-1.742187-1.042968-4.183594.574219-5.628906l10.214844-9.644531-28.277344 16.359374c-1.882813 1.0625-4.261719.519532-5.5-1.253906-1.238281-1.769531-.929687-4.191406.71875-5.59375l22.113281-18.46875-43.90625 25.316406c-1.929687 1.066407-4.363281.457032-5.558594-1.402343-1.195312-1.855469-.746093-4.324219 1.027344-5.640625l15-10.710938-30.761718 17.753906c-1.921876 1.109376-4.378907.53125-5.601563-1.324218-1.222656-1.851563-.792969-4.335938.984375-5.667969l49.75-37.226563-76.609375 44.21875c-1.941406 1.074219-4.382813.453126-5.574219-1.417968s-.71875-4.347656 1.074219-5.648438l57.34375-40.011718-81.558594 47.078124c-1.949219 1.066407-4.390625.429688-5.574219-1.453124-1.179687-1.882813-.683593-4.359376 1.128907-5.648438l67.691406-45.726562-91.488281 52.878906c-1.949219 1.054687-4.386719.410156-5.558594-1.472656-1.171875-1.882813-.679688-4.351563 1.125-5.636719l91.589844-61.5-118.867188 68.558593c-1.960937 1.097657-4.4375.453126-5.617187-1.457031-1.183594-1.914062-.648438-4.414062 1.210937-5.679687l103.742188-68.09375-130.308594 75.230468c-1.96875 1.039063-4.40625.359376-5.554688-1.550781-1.148437-1.910156-.601562-4.382812 1.242188-5.632812l47.507812-29.621094-63.792968 36.804687c-1.972656 1.039063-4.417969.351563-5.5625-1.566406-1.140625-1.917968-.582032-4.394531 1.273437-5.636718l18.179688-11.179688-31.828125 18.382812c-1.96875 1.085938-4.445313.417969-5.613282-1.507812-1.164062-1.925781-.601562-4.425781 1.277344-5.667969l117.507813-74.257812-141.011719 81.417969c-1.972656 1.054687-4.429688.371093-5.578125-1.546876-1.148437-1.921874-.589844-4.40625 1.273437-5.648437l99.394532-61.617187-119.320313 68.828124c-1.976562 1.027344-4.414062.332032-5.546875-1.582031-1.136718-1.917969-.578125-4.386719 1.273438-5.628906l30.988281-18.808594-45.140625 26.019531c-1.980469 1.097657-4.476562.421876-5.636719-1.527343-1.15625-1.949219-.5625-4.464844 1.347657-5.683594l89.9375-55.078125-107.890626 62.289062c-.632812.378907-1.359374.585938-2.097656.59375zm0 0" fill="#457393"/><path d="m142.652344 313.136719c-1.882813 0-3.53125-1.25-4.042969-3.0625-.507813-1.8125.253906-3.738281 1.859375-4.71875l2.652344-1.609375-15.300782 8.796875c-1.972656 1.082031-4.449218.417969-5.613281-1.507813-1.164062-1.925781-.601562-4.425781 1.273438-5.667968l153.195312-96.578126-179.769531 103.753907c-1.976562 1.070312-4.449219.394531-5.605469-1.539063-1.152343-1.933594-.574219-4.433594 1.308594-5.664062l126.816406-78.328125-148.195312 85.53125c-1.976563 1.089843-4.460938.417969-5.621094-1.519531-1.164063-1.933594-.585937-4.441407 1.308594-5.675782l165.132812-102.398437-185.570312 107.160156c-1.980469 1.042969-4.433594.347656-5.574219-1.578125-1.136719-1.929688-.5625-4.410156 1.308594-5.640625l42.53125-25.667969-40.953125 23.644532c-1.996094 1.179687-4.570313.519531-5.75-1.476563-1.179688-1.996094-.519531-4.570313 1.476562-5.75l76.382813-46.265625-72.109375 41.664062c-1.976563 1.074219-4.449219.394532-5.605469-1.539062-1.152344-1.929688-.574219-4.429688 1.308594-5.660156l160.917968-99.605469-156.621093 90.421875c-1.984375 1.078125-4.464844.394531-5.617188-1.550781-1.148437-1.941407-.554687-4.449219 1.34375-5.667969l9.234375-5.589844-4.996094 2.878906c-1.976562 1.074219-4.449218.394532-5.601562-1.539062-1.15625-1.933594-.578125-4.429688 1.304688-5.664062l112.011718-69.167969-107.6875 62.195312c-1.289062.765625-2.886718.789063-4.195312.058594s-2.128906-2.105469-2.148438-3.605469c-.023437-1.5.757813-2.894531 2.046875-3.664062l96.398438-59.652344-92.101563 53.171875c-1.972656 1.101563-4.460937.449219-5.632812-1.484375-1.175782-1.929688-.609375-4.441406 1.277344-5.683594l143.242187-91.707031-138.886719 80.183594c-1.976562 1.089843-4.464844.417969-5.625-1.515625-1.160156-1.9375-.582031-4.445313 1.308594-5.675782l72.050781-45.050781-67.734375 39.105469c-1.964844 1.054688-4.410156.386719-5.566406-1.515625-1.160156-1.90625-.628906-4.382813 1.210938-5.644531l91.488281-58.457032-87.132813 50.273438c-1.960937 1.117188-4.453125.484375-5.640625-1.433594-1.191406-1.914062-.652343-4.429687 1.214844-5.691406l105.589844-70.300781-101.164063 58.40625c-1.984375 1.144531-4.515625.488281-5.695312-1.472657-1.175782-1.960937-.566406-4.503906 1.371094-5.71875l3.628906-2.265624c-1.988282.695312-4.1875-.1875-5.136719-2.070313-.949219-1.878906-.359375-4.171875 1.382813-5.359375l72.753906-49.351562-68.304688 39.449218c-1.949218 1.082032-4.402344.453125-5.589844-1.433594-1.191406-1.886718-.695312-4.371093 1.125-5.660156l51.476563-35.203125-47.003906 27.144531c-1.945313 1.136719-4.441407.535157-5.652344-1.363281-1.214844-1.898437-.710937-4.414062 1.136719-5.703125l40.773437-28.753906-36.265625 20.929688c-1.921875 1.113281-4.378906.53125-5.601562-1.320313s-.792969-4.335937.984375-5.667969l34.035156-25.558594-29.417969 16.988282c-1.910156 1.089844-4.339844.519531-5.566406-1.304688-1.226562-1.828125-.832031-4.289062.898438-5.644531l18.273437-14.167969-13.574219 7.835938c-1.804687 1.046875-4.101562.605468-5.394531-1.03125-1.292969-1.636719-1.183594-3.976563.25-5.488282l16.636719-17.542968-11.492188 6.632812c-1.59375.914063-3.597656.6875-4.945312-.5625-1.351563-1.253906-1.726563-3.238281-.929688-4.894531l4.644532-9.601563c-1.546876.035157-2.992188-.765624-3.777344-2.097656-1.160156-2.007812-.476563-4.574218 1.527344-5.734375l9.433593-5.4375c1.59375-.917969 3.601563-.691406 4.949219.5625 1.347656 1.25 1.722656 3.234375.925781 4.890625l-4.246093 8.8125 24.710937-14.265625c1.804687-1.046875 4.101563-.605469 5.394531 1.03125 1.292969 1.636719 1.183594 3.976563-.25 5.488281l-16.636718 17.527344 41.691406-24.046875c1.910156-1.089843 4.335937-.523437 5.5625 1.304688 1.226562 1.824219.835937 4.289062-.898438 5.644531l-18.253906 14.140625 36.585938-21.089844c1.921874-1.109375 4.378906-.53125 5.601562 1.320313 1.222656 1.851562.792969 4.335937-.984375 5.671875l-34.050781 25.539062 56.394531-32.53125c1.9375-1.089843 4.390625-.476562 5.589844 1.394531 1.199219 1.875.726562 4.359376-1.074219 5.664063l-40.785156 28.722656 62.019531-35.78125c1.949219-1.085937 4.402344-.457031 5.589844 1.429688 1.191406 1.886719.695312 4.371093-1.125 5.660156l-51.484375 35.253906 73.273437-42.304687c1.949219-1.066406 4.394531-.429688 5.574219 1.453125 1.179688 1.882812.6875 4.363281-1.125 5.648437l-72.738281 49.277344 97.777343-56.417969c1.980469-1.144531 4.515626-.488281 5.691407 1.472657 1.179687 1.960937.570312 4.503906-1.371094 5.71875l-1.886719 1.183593 14.503906-8.394531c1.964844-1.164062 4.5-.546875 5.707032 1.394531 1.207031 1.9375.640625 4.488281-1.277344 5.734375l-105.605469 70.292969 134.121094-77.402344c1.980469-1.207031 4.5625-.578125 5.769531 1.40625 1.203125 1.980469.574219 4.5625-1.40625 5.769531l-91.488281 58.46875 113.714844-65.644531c1.980469-1.144531 4.515625-.488281 5.691406 1.472657 1.179687 1.960937.570313 4.503906-1.371094 5.71875l-72.074219 45.066406 90.5-52.257813c1.96875-1.101562 4.460938-.449219 5.632813 1.480469 1.171875 1.933594.609375 4.445312-1.277344 5.6875l-143.234375 91.664062 171.242188-98.832031c1.992187-1.191406 4.570312-.539062 5.757812 1.449219 1.191406 1.992188.539063 4.570312-1.449218 5.757812l-96.441407 59.6875 115.828125-66.894531c1.992188-1.1875 4.566406-.535156 5.753906 1.453125 1.1875 1.992188.535157 4.570313-1.457031 5.753906l-111.800781 69.019532 132.089844-76.226563c1.289062-.765625 2.890625-.78125 4.195312-.042969 1.308594.734376 2.121094 2.113282 2.136719 3.613282.015625 1.496094-.769531 2.890625-2.0625 3.65625l-9.566406 5.773437 22.519531-13c1.980469-1.117187 4.492188-.453125 5.660156 1.5 1.167969 1.953125.566406 4.480469-1.355468 5.699219l-160.824219 99.472656 178.777343-103.242187c1.996094-1.179688 4.570313-.515625 5.75 1.480469 1.179688 1.996093.519532 4.566406-1.476562 5.75l-76.378906 46.269531 73.769531-42.578125c1.988281-1.109375 4.5-.429688 5.65625 1.535156 1.15625 1.960938.539063 4.484375-1.394531 5.691406l-42.738282 25.785156 38.476563-22.183593c1.980469-1.117188 4.492187-.449219 5.660156 1.503906 1.167969 1.949219.566407 4.480469-1.355469 5.695313l-165.117187 102.402343 160.8125-92.882812c1.285156-.765625 2.886719-.789063 4.195313-.058594 1.308593.730469 2.128906 2.105469 2.148437 3.605469s-.757813 2.894531-2.046875 3.664062l-126.84375 78.367188 122.546875-70.746094c1.976563-1.109375 4.476563-.445312 5.644531 1.492188 1.171875 1.941406.589844 4.460937-1.3125 5.691406l-153.234375 96.625 148.910157-85.964844c1.984374-1.078125 4.464843-.394531 5.617187 1.550781 1.148437 1.941407.554687 4.449219-1.34375 5.667969l-3.8125 2.316406c2.015625-.867187 4.355469-.035156 5.375 1.90625 1.015625 1.941406.367187 4.339844-1.488281 5.503906l-125.667969 80.03125 121.320313-70.042968c1.972656-1.101563 4.460937-.445313 5.632812 1.484375 1.171875 1.929687.609375 4.441406-1.277344 5.683593l-105.253906 67.324219 100.863281-58.234375c1.976563-1.105468 4.476563-.445312 5.648438 1.496094 1.167969 1.941406.585937 4.460938-1.316407 5.691406l-54.214843 34.152344 49.882812-28.796875c1.972657-1.148437 4.496094-.511719 5.6875 1.429687 1.191407 1.941407.617188 4.480469-1.296875 5.71875l-81.128906 52.878907 76.773438-44.292969c1.964843-1.117188 4.460937-.476562 5.648437 1.449219 1.183594 1.925781.632813 4.441406-1.25 5.695312l-63.328125 41.539063 58.921875-34.019532c1.960937-1.066406 4.417969-.40625 5.582031 1.5 1.164063 1.90625.632813 4.390626-1.210937 5.652344l-28.199219 18.273438 23.828125-13.757813c1.960937-1.117187 4.449219-.480469 5.640625 1.433594 1.1875 1.917969.652344 4.429687-1.21875 5.691406l-35.722656 23.839844 31.300781-18.074219c1.933594-1.109375 4.398437-.511718 5.609375 1.359375 1.214844 1.871094.75 4.363281-1.050781 5.675781l-48.683594 35.253907 44.097656-25.46875c1.902344-1.070313 4.308594-.5 5.53125 1.304687 1.226563 1.808594.859375 4.25-.839843 5.621094l-38.105469 30.199219 33.449219-19.304688c1.921874-1.109375 4.375-.53125 5.601562 1.324219 1.222656 1.851562.789062 4.335938-.984375 5.667969l-9.277344 6.992187 4.660157-2.679687c1.871093-1.054688 4.234374-.527344 5.480468 1.222656 1.246094 1.746094.972656 4.15625-.636718 5.578125l-9.234376 7.980469 4.390626-2.515625c1.625-.929688 3.667968-.671875 5.007812.632812 1.34375 1.304688 1.65625 3.339844.773438 4.988282l-6.277344 11.574218.34375-.191406c1.300781-.828125 2.953125-.875 4.296875-.121094 1.347656.75 2.171875 2.179688 2.152343 3.71875-.019531 1.542969-.886718 2.949219-2.25 3.664063l-13.230468 7.636719c-1.625.941406-3.679688.6875-5.027344-.625-1.347656-1.308594-1.660156-3.355469-.761719-5.007813l6.285157-11.566406-29.8125 17.125c-1.871094 1.054687-4.238282.527343-5.484376-1.21875-1.246093-1.75-.96875-4.160157.640626-5.582031l9.234374-7.972657-25.601562 14.773438c-1.917969 1.074219-4.34375.488281-5.554688-1.347657-1.214843-1.832031-.804687-4.292968.9375-5.636718l9.292969-7.007813-24.265625 13.992188c-1.902344 1.070312-4.308594.503906-5.53125-1.304688-1.226562-1.808593-.859375-4.25.839844-5.621093l38.113281-30.105469-64.160156 37.03125c-1.933594 1.109375-4.398437.511719-5.609375-1.359375-1.214844-1.871094-.75-4.363282 1.050781-5.675782l48.683594-35.253906-73.292969 42.289063c-1.953125 1.09375-4.429687.460937-5.613281-1.445313-1.183594-1.902344-.664063-4.402344 1.183594-5.671875l35.707031-23.832031-53.601562 30.949219c-1.96875 1.097656-4.449219.449219-5.625-1.472657-1.179688-1.921874-.628907-4.425781 1.242187-5.679687l28.234375-18.296875-44.082031 25.449219c-1.957031 1.066406-4.40625.414062-5.578125-1.484375-1.167969-1.898438-.652344-4.378906 1.179687-5.652344l63.320313-41.546875-84.351563 48.683594c-1.964843 1.078125-4.429687.429687-5.601562-1.480469-1.171875-1.90625-.640625-4.402344 1.210937-5.664062l81.132813-52.878907-103.964844 60.023438c-1.96875 1.082031-4.445313.417969-5.613281-1.507813-1.164063-1.925781-.601563-4.425781 1.277344-5.667968l54.269531-34.1875-71.652344 41.363281c-1.964844 1.050781-4.410156.382812-5.566406-1.519531-1.160157-1.902344-.628907-4.378907 1.207031-5.640626l105.238281-67.339843-129.039062 74.5c-1.972657 1.101562-4.460938.445312-5.636719-1.484375-1.171875-1.929688-.605469-4.441406 1.277344-5.683594l125.644531-80.007812-151.015625 87.175781c-.636719.378906-1.359375.585937-2.097656.59375zm0 0" fill="#4fc0e8"/><path d="m172.378906 456.070312c-1.820312 0-3.433594-1.175781-3.996094-2.910156-.558593-1.734375.066407-3.632812 1.546876-4.695312l13.226562-9.507813-21.871094 12.589844c-1.875 1.074219-4.257812.554687-5.511718-1.207031-1.253907-1.761719-.964844-4.183594.667968-5.601563l29.820313-25.816406-24.960938 14.433594c-1.761719 1.027343-4.007812.636719-5.320312-.925781s-1.3125-3.839844 0-5.402344l15.257812-18.222656-9.9375 5.734374c-1.457031.84375-3.273437.734376-4.621093-.273437-1.34375-1.011719-1.957032-2.726563-1.554688-4.359375l2.457031-10.273438c-.847656-.347656-1.554687-.972656-2.003906-1.773437-1.15625-2-.472656-4.5625 1.527344-5.722656l4.195312-2.425781c1.453125-.839844 3.265625-.738282 4.613281.265624 1.34375 1.003907 1.964844 2.710938 1.574219 4.34375l-1.933593 8.039063 21.992187-12.683594c1.765625-1.023437 4.007813-.632812 5.320313.929688s1.3125 3.839843 0 5.402343l-15.242188 18.210938 42.597656-24.589844c1.871094-1.058594 4.234375-.53125 5.480469 1.21875s.972656 4.15625-.636719 5.578125l-29.8125 25.808594 56.554688-32.648437c1.9375-1.125 4.414062-.527344 5.628906 1.351562 1.214844 1.882812.738281 4.386719-1.082031 5.691406l-13.261719 9.535156 28.757812-16.605468c1.925782-1.117188 4.390626-.539063 5.617188 1.320312 1.222656 1.863282.78125 4.355469-1.007812 5.679688l-20.894532 15.546875 39.113282-22.578125c1.894531-1.066406 4.289062-.511719 5.519531 1.277344 1.230469 1.792968.890625 4.226562-.785157 5.613281l-30.8125 24.910156 55.171876-31.84375c1.933593-1.09375 4.386718-.488281 5.589843 1.378906 1.207031 1.867188.746094 4.351563-1.050781 5.664063l-12.210938 8.746094 25.179688-14.511719c1.875-1.046875 4.234375-.511719 5.472656 1.238281 1.238282 1.753906.957032 4.160156-.65625 5.574219l-32.328125 27.597656 27.585938-15.945313c1.914062-1.113281 4.363281-.554687 5.597656 1.28125 1.234375 1.835938.832031 4.316407-.921875 5.667969l-3.097656 2.398438c1.753906-.234375 3.464844.648437 4.28125 2.214843.820312 1.566407.574218 3.476563-.621094 4.777344l-8.023438 8.847656 2.90625-1.679687c1.46875-.847656 3.308594-.726563 4.65625.304687 1.347657 1.035157 1.9375 2.78125 1.496094 4.421876l-2.160156 7.957031c1.398438.679687 2.308594 2.074219 2.359375 3.628906.054687 1.550781-.75 3.007813-2.097656 3.78125l-4.195313 2.425781c-1.472656.847656-3.304687.722656-4.652344-.3125-1.34375-1.03125-1.933593-2.773437-1.492187-4.410156l1.46875-5.449219-17.628906 10.207031c-1.789063 1.03125-4.066407.601563-5.359375-1.007812-1.296875-1.613281-1.226563-3.925781.164062-5.457031l8.058594-8.804688-26.582031 15.304688c-1.910157 1.113281-4.359375.550781-5.59375-1.285157-1.234375-1.835937-.832031-4.316406.917969-5.667968l1.285156-.988282-13.789063 7.957032c-1.875 1.0625-4.25.53125-5.496093-1.226563-1.246094-1.757812-.957032-4.175781.667968-5.589843l32.332032-27.597657-59.703126 34.464844c-1.933593 1.09375-4.386718.488281-5.589843-1.378906-1.207031-1.871094-.746094-4.351563 1.050781-5.664063l12.203125-8.753906-27.414063 15.820312c-1.890624 1.066407-4.289062.511719-5.519531-1.277343-1.230469-1.792969-.886719-4.226563.785157-5.613281l30.8125-24.910157-55.152344 31.84375c-1.925782 1.121094-4.390625.539063-5.617188-1.320312-1.222656-1.859375-.78125-4.355469 1.007813-5.679688l20.875-15.535156-39.078125 22.570313c-.640625.378906-1.371094.578124-2.117188.578124zm0 0" fill="#365972"/><path d="m185.046875 497.792969c-1.765625.003906-3.34375-1.101563-3.949219-2.757813-.605468-1.660156-.105468-3.519531 1.246094-4.652344l12.960938-10.914062-30.761719 17.730469c-1.808594 1.019531-4.09375.5625-5.371094-1.070313-1.277344-1.636718-1.167969-3.960937.257813-5.46875l19.304687-20.027344-46.019531 26.566407c-1.804688 1.03125-4.09375.585937-5.382813-1.046875-1.285156-1.636719-1.179687-3.964844.246094-5.476563l19.402344-20.394531-41.964844 24.238281c-1.875 1.082031-4.261719.5625-5.515625-1.199219-1.238281-1.765624-.9375-4.183593.695312-5.589843l11.300782-9.746094-8.925782 5.152344c-1.75 1-3.964843.613281-5.269531-.921875-1.308593-1.535156-1.339843-3.785156-.074219-5.355469l8.527344-10.507813c-1.867187-.078124-3.457031-1.382812-3.898437-3.195312-.445313-1.816406.363281-3.703125 1.984375-4.636719l16.234375-9.367187c1.75-1.007813 3.972656-.625 5.285156.914062 1.3125 1.539063 1.339844 3.792969.066406 5.367188l-7.367187 9.070312 27.699218-16.003906c1.871094-1.0625 4.242188-.53125 5.488282 1.222656s.960937 4.164063-.65625 5.582032l-11.304688 9.753906 28.707032-16.542969c1.804687-1.03125 4.089843-.585937 5.378906 1.046875 1.285156 1.632812 1.183594 3.960938-.242188 5.476562l-19.40625 20.335938 46.625-26.859375c1.808594-1.019531 4.089844-.566406 5.367188 1.070313 1.28125 1.636718 1.171875 3.960937-.253906 5.46875l-19.308594 20.019531 46.023437-26.558594c1.882813-1.074219 4.273438-.539063 5.515625 1.234375 1.246094 1.773438.9375 4.203125-.714844 5.605469l-12.96875 10.914062 30.78125-17.753906c1.8125-1.035156 4.105469-.578125 5.390626 1.066406 1.28125 1.648438 1.15625 3.984375-.289063 5.488281l-19.230469 19.734376 45.542969-26.289063c1.855469-1.167969 4.296875-.710937 5.605469 1.046875s1.042968 4.226562-.609375 5.667969l-18.03125 17.140625 41.238281-23.855469c1.863281-1.074219 4.238281-.570313 5.5 1.175781 1.257812 1.742188 1 4.15625-.605469 5.589844l-15.855469 14.082031 36.089844-20.847656c1.816406-1.035156 4.117188-.574219 5.398438 1.078125 1.277344 1.652344 1.144531 3.996094-.3125 5.492188l-19.101563 19.390624 44.996094-25.960937c1.847656-1.03125 4.175781-.523437 5.425781 1.183594 1.253906 1.707031 1.039063 4.078125-.5 5.53125l-16.851562 15.367187 30.214844-17.433594c1.765624-1.023437 4.015624-.625 5.324218.941407 1.308594 1.566406 1.300782 3.847656-.019531 5.40625l-15.59375 18.382812 20.058594-11.578125c1.617187-.925781 3.652343-.675781 4.996093.617188 1.34375 1.289062 1.675782 3.3125.8125 4.964844l-5.671874 10.796874 1.25-.714843c1.992187-1.042969 4.453124-.328125 5.578124 1.617187 1.125 1.949219.515626 4.4375-1.382812 5.644532l-13.804688 7.964843c-1.617187.925781-3.652343.675781-4.996093-.617187-1.34375-1.289063-1.675781-3.3125-.8125-4.964844l5.671875-10.792969-28.378906 16.367188c-1.765626 1.023437-4.011719.625-5.320313-.941407-1.3125-1.566406-1.304687-3.847656.015625-5.40625l15.613281-18.382812-42.90625 24.730469c-1.847656 1.027343-4.175781.519531-5.429687-1.183594-1.25-1.707031-1.035156-4.078125.5-5.53125l16.847656-15.371094-38.273438 22.085938c-1.816406 1.03125-4.117187.574219-5.398437-1.078125-1.277344-1.65625-1.144531-3.996094.3125-5.496094l19.101563-19.386719-44.964844 25.960938c-1.859375 1.058593-4.222656.542969-5.476563-1.191407-1.253906-1.738281-1-4.140624.59375-5.574218l15.855469-14.085938-36.09375 20.851563c-1.855469 1.167969-4.296875.710937-5.601562-1.046875-1.308594-1.761719-1.042969-4.230469.609374-5.667969l18.035157-17.140625-41.3125 23.855469c-1.8125 1.042969-4.117188.59375-5.40625-1.054688-1.285157-1.652343-1.160157-4 .296875-5.503906l19.230468-19.730469-45.519531 26.289063c-.632812.382812-1.359375.585937-2.097656.59375zm0 0" fill="#457393"/><g fill="#262626"><path d="m1.726562 333.523438c0 15.109374-3.777343 37.527343 5.234376 50.839843 9.878906 14.570313 26.179687 13.019531 41.589843 13.019531h104.324219v50.613282c-11.113281-1.097656-22.328125-.597656-33.296875 1.484375-14.671875 3.886719-38.199219 27.867187-22.773437 43.941406 6.714843 6.980469 22.363281 4.144531 30.6875 4.144531h264.183593c.683594-.011718 1.359375-.128906 2.007813-.34375.949218-.03125 1.882812-.226562 2.769531-.570312 16.417969-6.800782 15.761719-28.671875 3.355469-40.523438-11.75-11.207031-31.777344-8-46.5-8h-3.601563v-50.738281h119.214844c1.078125-.007813 2.140625-.265625 3.105469-.753906 46.925781-11.390625 28.804687-96.15625 28.804687-131.527344 0-72.855469 2.285157-146.121094 0-218.941406-1.34375-43.035157-26.851562-43.417969-63.066406-43.417969h-227.613281c-56.882813 0-117.25-5.878906-173.886719 0-48.019531 5.035156-34.515625 64.257812-34.515625 99.039062zm362.730469 122.085937c13.730469 2.515625 47.277344 24.660156 28.738281 34.496094h-229.609374c-12.128907 0-40.191407 5.464843-51.429688 0-16.644531-8.089844 4.382812-31.550781 14.136719-34.496094 7.628906-.976563 15.351562-.976563 22.980469 0h181.449218c11.222656-.960937 22.507813-.960937 33.734375 0zm-199.429687-31.109375v-27.109375h173.433594c-1.058594 7.652344-1.371094 15.386719-.929688 23.097656v27.648438h-173.628906c1.257812-7.8125 1.632812-15.738281 1.125-23.636719zm-151.015625-390.378906c10.308593-38.960938 88.132812-22.828125 116.988281-22.828125h300.789062c20.636719 0 32.625-4.253907 46.835938 10.851562 16.191406 17.207031 9.917969 43.234375 9.917969 66.242188v230.675781c0 18.375 8.664062 63.070312-19.160157 69.785156h-333.597656c-29.988281 0-112.128906 16.828125-121.773437-24.777344-4.261719-18.398437 0-43.488281 0-62.230468v-207.914063c0-17.5-4.523438-42.6875 0-59.804687zm0 0"/><path d="m35.316406 300.65625c-.207031.574219-.1875 1.203125.050782 1.761719 9.164062 22.136719 70.167968 10.746093 88.238281 10.746093h289.667969c11.128906 0 26.261718 2.851563 37.097656 0 30.511718-8.023437 16.863281-65.644531 16.863281-89.726562v-102.183594c0-20.648437 5.304687-49.519531 0-69.664062-6.457031-24.449219-41.96875-14.992188-63.144531-14.992188h-200.484375c-47.703125 0-99.589844-5.941406-146.96875 0-35.339844 4.449219-21.320313 54.945313-21.320313 82.054688zm12.53125-256.082031c3.355469-2.957031 25.371094 0 29.613282 0h327.863281c8.6875 0 35.125-4.59375 43.132812 0 18.558594 10.640625 6.53125 90.027343 6.53125 110.019531v88.84375c0 11.289062 5.976563 46.441406 0 56.503906-7.992187 13.429688-64.839843 5.257813-82.867187 5.257813h-200.394532c-16.285156 0-116.535156 11.75-124.15625-5.96875v-213.058594c0-6.523437-4.726562-37.140625.277344-41.597656zm0 0"/><path d="m156.433594 77.199219h8.394531c3.015625.152343 5.953125-.996094 8.074219-3.148438 1.425781-2.316406-1.234375-2.914062-3.125-2.914062h-8.390625c-3.019531-.152344-5.957031.996093-8.074219 3.148437-1.386719 2.316406 1.273438 2.914063 3.121094 2.914063zm0 0"/><path d="m68.882812 125.082031c0 5.984375 12.269532 3.902344 12.269532-1.105469 0-13.867187-1.050782-28.144531 0-41.96875.402344-5.230468 1.820312-3.710937 6.628906-3.710937h35.414062c5.445313 0 12.589844-8.257813 4.363282-8.257813h-26.816406c-8.007813 0-19.363282-1.789062-26.246094 3.265626-7.605469 5.589843-5.613282 15.804687-5.613282 24.027343zm0 0"/><path d="m68.941406 159.730469v8.394531c0 1.871094 12.152344.183594 12.152344-3.257812v-8.394532c0-1.871094-12.152344-.183594-12.152344 3.257813zm0 0"/><path d="m272.019531 348.699219h-33.574219c-3.039062-.167969-6.054687.636719-8.601562 2.300781-1.429688 1.292969-2.082031 2.601562.695312 2.601562h33.574219c3.039063.171876 6.054688-.632812 8.601563-2.300781 1.429687-1.289062 2.066406-2.601562-.695313-2.601562zm0 0"/><path d="m96.730469 268.417969 99.882812-94.578125 65.804688 79.050781c2.296875 2.769531 8.5.921875 10.550781-1.261719l123.316406-130.988281v13.910156c0 3.699219 12.152344 1.433594 12.152344-3.257812v-25.179688c0-.839843-.671875-1.324219-1.628906-1.59375l-.191406-.085937h-.195313c-.558594-.222656-1.15625-.339844-1.761719-.351563h-25.179687c-4.902344 0-12.792969 7.402344-4.601563 7.402344 6.21875.761719 12.503906.761719 18.71875 0-2.519531 2.519531-5.480468 5.136719-6.117187 5.675781-16.277344 15.414063-31.652344 31.753906-46.054688 48.933594l-72.132812 76.640625-65.46875-78.648437c-2.386719-2.859376-8.394531-.839844-10.5625 1.25l-106.386719 100.722656c-5.226562 4.902344 6.683594 5.355468 9.855469 2.359375zm0 0"/></g></svg>