<svg id="icons" height="512" viewBox="0 0 60 60" width="512" xmlns="http://www.w3.org/2000/svg"><path d="m44.232 47.331a.5.5 0 0 1 -.306-.894l4.365-3.391a.5.5 0 0 1 -.5-.857l1.65-1.3a.5.5 0 0 1 -.313-.889l1.237-1a.514.514 0 0 1 -.426-.215.5.5 0 0 1 .093-.671l.925-.762a.5.5 0 0 1 -.318-.881l.789-.667a.505.505 0 0 1 -.424-.205.5.5 0 0 1 .066-.664l1.1-1-.16.091a.5.5 0 0 1 -.622-.766l2.058-2.3-1.174.677a.5.5 0 0 1 -.587-.8l.506-.466a.493.493 0 0 1 -.523-.163.5.5 0 0 1 .009-.646l1.574-1.8-1.049.6a.5.5 0 0 1 -.6-.791l.54-.524-.095.055a.5.5 0 0 1 -.619-.771l1.03-1.125-.69.4a.5.5 0 0 1 -.64-.744l1.319-1.652-1.145.66a.5.5 0 0 1 -.6-.788l.3-.3-.061.034a.5.5 0 0 1 -.657-.722l1.316-1.836-1.388.8a.5.5 0 0 1 -.652-.73l1.14-1.553-1.292.746a.5.5 0 0 1 -.621-.768l.588-.649-.615.354a.5.5 0 0 1 -.658-.724l1.063-1.486-1.4.808a.5.5 0 0 1 -.648-.737l.919-1.2-1.262.729a.5.5 0 0 1 -.636-.75l.753-.917-1.09.629a.5.5 0 0 1 -.655-.727l.926-1.277-1.509.871a.5.5 0 0 1 -.671-.7l1.01-1.569-1.858 1.073a.5.5 0 0 1 -.685-.681l1.019-1.783-2.2 1.27a.5.5 0 0 1 -.652-.73l.894-1.2-1.884 1.087a.5.5 0 0 1 -.659-.721l.963-1.367-2.234 1.283a.5.5 0 0 1 -.638-.747l.873-1.079-2.149 1.241a.5.5 0 0 1 -.608-.782l.533-.548-1.671.964a.5.5 0 0 1 -.646-.737l1.091-1.421-3.23 1.87a.5.5 0 0 1 -.6-.792l.718-.7-2.652 1.53a.493.493 0 0 1 -.625-.1.5.5 0 0 1 -.022-.638l1.47-1.919-6.9 3.984a.5.5 0 0 1 -.5-.866l9.07-5.235a.5.5 0 0 1 .648.736l-1.468 1.919 3.971-2.292a.5.5 0 0 1 .6.791l-.719.7 1.923-1.11a.5.5 0 0 1 .626.1.5.5 0 0 1 .021.634l-1.095 1.421 2.612-1.507a.5.5 0 0 1 .609.781l-.535.549 1.365-.786a.5.5 0 0 1 .638.747l-.874 1.079 1.869-1.078a.5.5 0 0 1 .659.72l-.963 1.368 2.008-1.16a.5.5 0 0 1 .651.731l-.894 1.2 1.712-.988a.5.5 0 0 1 .685.68l-1.02 1.784 2.045-1.18a.5.5 0 0 1 .671.7l-1.01 1.568 1.755-1.012a.5.5 0 0 1 .655.726l-.926 1.277 1.435-.829a.5.5 0 0 1 .637.75l-.753.917 1.051-.6a.5.5 0 0 1 .647.736l-.919 1.2 1.23-.71a.5.5 0 0 1 .657.724l-1.061 1.485 1.371-.792a.5.5 0 0 1 .621.768l-.588.649.61-.351a.5.5 0 0 1 .653.729l-1.147 1.562 1.308-.755a.5.5 0 0 1 .657.723l-1.307 1.832 1.413-.816a.5.5 0 0 1 .647.129.5.5 0 0 1 -.046.66l-.306.3.093-.053a.5.5 0 0 1 .641.744l-1.319 1.652 1.207-.7a.5.5 0 0 1 .619.77l-1.032 1.126.767-.442a.5.5 0 0 1 .6.791l-.541.525.169-.1a.5.5 0 0 1 .627.76l-1.574 1.8 1.179-.68a.5.5 0 0 1 .588.8l-.467.429a.5.5 0 0 1 .581.788l-2.057 2.294 1.431-.826a.5.5 0 0 1 .587.8l-1.1 1 .391-.225a.5.5 0 0 1 .572.814l-.632.534a.5.5 0 0 1 .439.871l-.708.583a.5.5 0 0 1 .423.877l-.946.766a.5.5 0 0 1 .529.843l-1.277 1 .152-.087a.5.5 0 0 1 .556.827l-4.337 3.369 2.6-1.5a.5.5 0 1 1 .5.865l-8.93 5.157a.491.491 0 0 1 -.248.086z" fill="#bfdbf0"/><path d="m28.36 56.383a.5.5 0 0 1 -.371-.836l1.405-1.547-3.48 2.01a.5.5 0 0 1 -.6-.79l.769-.752-2.015 1.163a.5.5 0 0 1 -.653-.728l1.119-1.533-2.75 1.587a.5.5 0 0 1 -.595-.794l.221-.211-.91.525a.5.5 0 0 1 -.644-.74l.927-1.191-2.006 1.154a.5.5 0 0 1 -.671-.7l1-1.57-2.188 1.262a.5.5 0 0 1 -.672-.692l1.008-1.661-2.08 1.2a.5.5 0 0 1 -.641-.745l.776-.971-1.361.786a.5.5 0 0 1 -.67-.7l1-1.549-1.756 1.012a.5.5 0 0 1 -.622-.772l.517-.578-.794.458a.5.5 0 0 1 -.623-.768l.517-.576-.74.427a.5.5 0 0 1 -.633-.754l.716-.855-.962.555a.5.5 0 0 1 -.637-.749l.8-.986-1.023.59a.5.5 0 0 1 -.637-.749l.839-1.026-1 .577a.5.5 0 0 1 -.668-.706l1.244-1.9-1.557.9a.5.5 0 0 1 -.652-.73l1.193-1.615-1.3.752a.5.5 0 0 1 -.629-.759l.955-1.108-.881.508a.5.5 0 0 1 -.614-.776l.7-.745-.513.3a.5.5 0 0 1 -.609-.78l.683-.708-.432.25a.5.5 0 0 1 -.592-.8l.207-.193a.5.5 0 0 1 -.461-.847l.475-.459-.107.062a.5.5 0 0 1 -.643-.124.5.5 0 0 1 .031-.655l1.108-1.158-.712.411a.5.5 0 0 1 -.617-.771l1.527-1.656-1.043.6a.5.5 0 0 1 -.6-.8l1-.953-.421.242a.5.5 0 0 1 -.609-.781l1.977-2.023-1.242.716a.5.5 0 0 1 -.583-.8l1.228-1.1-.425.245a.5.5 0 0 1 -.582-.806l1.876-1.67-.893.515a.5.5 0 0 1 -.584-.8l3.468-3.113-2.06 1.189a.5.5 0 0 1 -.554-.829l3.047-2.338-1.528.881a.5.5 0 0 1 -.523-.851l7-4.563-5.125 2.959a.5.5 0 0 1 -.522-.851l2.562-1.668-.484.279a.5.5 0 0 1 -.552-.831l4.85-3.672a.5.5 0 0 1 -.235-.932l6.212-3.587a.5.5 0 0 1 .552.831l-4.376 3.312 10.029-5.789a.5.5 0 0 1 .522.852l-2.547 1.655 4.729-2.731a.5.5 0 0 1 .523.852l-14.309 9.321a.5.5 0 0 1 -.112.674l-3.269 2.506a.5.5 0 0 1 .4.867l-3.463 3.114.978-.564a.5.5 0 0 1 .583.806l-1.878 1.677.412-.238a.5.5 0 0 1 .582.806l-1.226 1.089.127-.074a.5.5 0 0 1 .609.782l-1.965 2.025.945-.546a.5.5 0 0 1 .595.8l-1 .956.259-.148a.5.5 0 0 1 .617.771l-1.532 1.649.894-.515a.5.5 0 0 1 .611.778l-1.107 1.157.6-.345a.5.5 0 0 1 .6.792l-.477.461.042-.024a.5.5 0 0 1 .591.8l-.23.215a.5.5 0 0 1 .45.84l-.683.707.381-.22a.5.5 0 0 1 .614.775l-.7.747.473-.273a.5.5 0 0 1 .629.759l-.954 1.109.844-.486a.5.5 0 0 1 .652.73l-1.197 1.606 1.288-.743a.5.5 0 0 1 .668.706l-1.244 1.9 1.552-.9a.5.5 0 0 1 .637.749l-.839 1.028 1.016-.587a.5.5 0 0 1 .637.749l-.8.985 1.052-.606a.5.5 0 0 1 .633.754l-.716.854 1-.577a.5.5 0 0 1 .623.767l-.517.577.785-.453a.5.5 0 0 1 .623.765l-.516.577.85-.49a.5.5 0 0 1 .67.7l-1 1.55 1.86-1.074a.5.5 0 0 1 .641.745l-.778.973 1.476-.852a.5.5 0 0 1 .677.693l-1.008 1.66 2.277-1.314a.5.5 0 0 1 .671.7l-1.006 1.571 2.439-1.392a.5.5 0 0 1 .644.74l-.926 1.191 2.303-1.331a.5.5 0 0 1 .6.794l-.221.206 1.187-.685a.5.5 0 0 1 .622.1.5.5 0 0 1 .031.629l-1.119 1.534 3.41-1.969a.5.5 0 0 1 .6.79l-.768.751 2.8-1.614a.5.5 0 0 1 .62.769l-1.405 1.551 5.806-3.351a.5.5 0 0 1 .611.778l-2.269 2.371 15.986-9.234a.5.5 0 0 1 .54.84l-5.676 4.05 1.9-1.1a.5.5 0 1 1 .5.865l-10.906 6.3a.5.5 0 0 1 -.54-.84l5.677-4.05-10.02 5.785a.5.5 0 0 1 -.611-.779l2.27-2.371-5.534 3.194a.489.489 0 0 1 -.252.069z" fill="#bfdbf0"/><path d="m26.506 9.47a.5.5 0 0 1 -.289-.908l1.063-.75-2.6 1.5a.5.5 0 0 1 -.565-.821l4.771-3.869-5.561 3.21a.5.5 0 0 1 -.571-.815l3.209-2.692-2.683 1.549a.5.5 0 0 1 -.578-.811l1.145-.993-.567.33a.5.5 0 0 1 -.614-.089.5.5 0 0 1 -.053-.62l.8-1.209a.5.5 0 0 1 -.348-.923l1.657-.959a.5.5 0 0 1 .667.709l-.77 1.161 3.245-1.87a.5.5 0 0 1 .577.81l-1.141.99 3.121-1.8a.5.5 0 0 1 .571.815l-3.209 2.685 6.075-3.5a.5.5 0 0 1 .566.821l-4.771 3.866 6.7-3.866a.5.5 0 0 1 .538.841l-1.067.752.893-.515a.5.5 0 0 1 .574.814l-2.9 2.464 2.329-1.345a.5.5 0 0 1 .626.761l-1.6 1.83.978-.564a.5.5 0 0 1 .5.865l-3.603 2.076a.5.5 0 0 1 -.626-.761l1.605-1.828-4.492 2.589a.5.5 0 0 1 -.573-.813l2.9-2.466-5.68 3.279a.489.489 0 0 1 -.249.07z" fill="#5acca6"/><path d="m3.91 34.47a.5.5 0 0 1 -.29-.907l1.812-1.29-3.194 1.844a.5.5 0 0 1 -.544-.837l2.8-2.028-3.116 1.795a.5.5 0 0 1 -.548-.833l1.991-1.485-1.541.889a.5.5 0 0 1 -.594-.8l2.36-2.232-1.766 1.023a.5.5 0 0 1 -.676-.7l.9-1.465a.5.5 0 0 1 -.443-.893l1.661-.951a.5.5 0 0 1 .675.7l-.9 1.457 3.733-2.157a.5.5 0 0 1 .594.8l-2.361 2.226 5.247-3.026a.5.5 0 0 1 .549.833l-1.99 1.484 4.014-2.317a.5.5 0 0 1 .544.837l-2.791 2.026 4.048-2.337a.5.5 0 0 1 .54.84l-1.815 1.291 1.868-1.078a.5.5 0 0 1 .562.823l-2.762 2.2 2.243-1.295a.5.5 0 0 1 .572.815l-1.189 1 .617-.356a.5.5 0 0 1 .656.725l-.92 1.277.113-.064a.5.5 0 1 1 .5.865l-2.128 1.231a.5.5 0 0 1 -.656-.724l.92-1.278-3.47 2a.5.5 0 0 1 -.572-.814l1.188-1-3.151 1.816a.5.5 0 0 1 -.562-.823l2.762-2.2-5.24 3.023a.5.5 0 0 1 -.25.07z" fill="#cd4c60"/><path d="m50.757 34.47a.5.5 0 0 1 -.295-.9l.694-.507-2.328 1.337a.5.5 0 0 1 -.557-.827l3.9-3.029-6.054 3.495a.5.5 0 0 1 -.551-.832l3.545-2.674-3.8 2.2a.5.5 0 0 1 -.558-.826l2.391-1.869-1.864 1.07a.5.5 0 0 1 -.615-.773l2.05-2.2-1.435.828a.5.5 0 0 1 -.644-.739l.579-.746a.5.5 0 0 1 -.15-.923l1.657-.956a.5.5 0 0 1 .644.739l-.375.482 2.121-1.22a.5.5 0 0 1 .616.773l-2.05 2.2 5.148-2.973a.5.5 0 0 1 .558.826l-2.394 1.874 4.673-2.7a.5.5 0 0 1 .551.832l-3.543 2.668 5.31-3.066a.5.5 0 0 1 .557.827l-3.9 3.031 4.079-2.355a.5.5 0 0 1 .545.836l-.7.509.154-.088a.5.5 0 0 1 .6.791l-1.994 1.934 1.4-.8a.5.5 0 0 1 .662.716l-.744 1.081a.513.513 0 0 1 .478.248.5.5 0 0 1 -.182.682l-1.655.956a.5.5 0 0 1 -.662-.715l.686-1-2.971 1.713a.5.5 0 0 1 -.6-.791l1.994-1.934-4.721 2.725a.493.493 0 0 1 -.25.07z" fill="#33916f"/><path d="m12.48 19.47a.5.5 0 0 1 -.3-.9l1.381-1.056-3.273 1.886a.5.5 0 0 1 -.562-.823l4.115-3.29-6.616 3.821a.5.5 0 0 1 -.568-.818l4.628-3.813-5 2.889a.5.5 0 0 1 -.561-.824l2.136-1.7-1.575.909a.5.5 0 0 1 -.589-.8l1.338-1.231-.749.432a.5.5 0 0 1 -.655-.725l.679-.942a.5.5 0 0 1 -.238-.932l1.651-.953a.5.5 0 0 1 .655.725l-.576.8 2.643-1.525a.5.5 0 0 1 .588.8l-1.338 1.23 3.521-2.03a.5.5 0 0 1 .561.824l-2.135 1.7 4.365-2.524a.5.5 0 0 1 .568.818l-4.628 3.813 7.127-4.115a.5.5 0 0 1 .562.824l-4.116 3.29 4.2-2.425a.5.5 0 0 1 .554.83l-1.383 1.058.829-.478a.5.5 0 0 1 .637.115.5.5 0 0 1 -.011.648l-1.8 2.044 1.169-.675a.5.5 0 1 1 .5.865l-3.8 2.192a.5.5 0 0 1 -.626-.762l1.804-2.042-4.863 2.8a.489.489 0 0 1 -.249.07z" fill="#a53c50"/><path d="m44.071 19.47a.5.5 0 0 1 -.292-.906l1.608-1.159-3.421 1.975a.5.5 0 0 1 -.541-.839l2.636-1.89-3.39 1.957a.5.5 0 0 1 -.539-.84l1.306-.926-1.152.665a.5.5 0 0 1 -.566-.82l2.6-2.12-2.04 1.176a.5.5 0 0 1 -.607-.782l1.637-1.671-1.03.594a.5.5 0 0 1 -.639-.745l.537-.67a.5.5 0 0 1 -.113-.913l1.657-.956a.5.5 0 0 1 .639.745l-.272.341 1.884-1.086a.5.5 0 0 1 .607.782l-1.638 1.672 4.251-2.454a.5.5 0 0 1 .567.82l-2.6 2.121 5.1-2.941a.5.5 0 0 1 .539.84l-1.306.925 2.88-1.665a.5.5 0 0 1 .541.839l-2.638 1.891 3.181-1.836a.5.5 0 0 1 .543.836l-1.605 1.158 1.326-.766a.5.5 0 0 1 .557.827l-1.665 1.3 1.108-.638a.5.5 0 0 1 .581.806l-1.067.945.486-.28a.5.5 0 0 1 .61.78l-.4.417a.5.5 0 0 1 .226.932l-2.587 1.489a.5.5 0 0 1 -.61-.779l.2-.213-1.719.992a.5.5 0 0 1 -.581-.806l1.065-.943-3.025 1.749a.5.5 0 0 1 -.557-.827l1.665-1.3-3.687 2.127a.493.493 0 0 1 -.25.07z" fill="#4ab591"/><path d="m27.211 59.47a.5.5 0 0 1 -.3-.9l3.3-2.535-5.624 3.246a.5.5 0 0 1 -.563-.822l4.666-3.753-5.369 3.1a.5.5 0 0 1 -.549-.833l1.749-1.309-1.239.715a.5.5 0 0 1 -.571-.817l1.462-1.222-.891.513a.5.5 0 0 1 -.684-.68l1.021-1.784-.051.029a.5.5 0 1 1 -.5-.865l1.656-.956a.5.5 0 0 1 .684.68l-1.022 1.784 4.272-2.461a.5.5 0 0 1 .571.816l-1.462 1.224 3.533-2.04a.5.5 0 0 1 .667.157.5.5 0 0 1 -.117.676l-1.75 1.306 3.71-2.141a.5.5 0 0 1 .563.822l-4.667 3.752 6.6-3.808a.5.5 0 0 1 .554.829l-3.3 2.536 3.16-1.829a.5.5 0 0 1 .56.825l-1.8 1.429 1.24-.715a.5.5 0 0 1 .6.79l-1.351 1.323.752-.434a.5.5 0 0 1 .639.746l-.534.665a.5.5 0 0 1 .109.912l-1.655.956a.5.5 0 0 1 -.639-.746l.267-.332-1.873 1.081a.5.5 0 0 1 -.6-.79l1.351-1.322-3.659 2.112a.5.5 0 0 1 -.561-.824l1.8-1.431-3.905 2.255a.5.5 0 0 1 -.25.07z" fill="#4184a9"/><path d="m11.5 49.47a.5.5 0 0 1 -.3-.9l1.716-1.284-3.671 2.114a.5.5 0 0 1 -.558-.826l4.274-3.344-6.144 3.549a.5.5 0 0 1 -.569-.816l4.3-3.583-4.268 2.464a.5.5 0 0 1 -.592-.8l2.574-2.412-1.982 1.146a.5.5 0 0 1 -.681-.685l.985-1.682-.018.01a.5.5 0 1 1 -.5-.865l1.656-.956a.5.5 0 0 1 .681.685l-.986 1.683 4.106-2.37a.5.5 0 0 1 .592.8l-2.575 2.41 5.56-3.208a.5.5 0 0 1 .57.816l-4.297 3.584 7.256-4.189a.5.5 0 0 1 .558.826l-4.276 3.346 4.777-2.758a.5.5 0 0 1 .549.833l-1.714 1.282 1.2-.69a.5.5 0 0 1 .555.829l-.453.348a.505.505 0 0 1 .55.18.5.5 0 0 1 -.06.663l-.744.7.152-.087a.5.5 0 1 1 .5.866l-3.923 2.251a.5.5 0 0 1 -.592-.8l.744-.7-2.59 1.5a.5.5 0 0 1 -.554-.829l.375-.289-1.937 1.118a.492.492 0 0 1 -.246.07z" fill="#35718a"/><path d="m44.319 49.47a.5.5 0 0 1 -.31-.892l3.856-3.062-6.424 3.708a.5.5 0 0 1 -.555-.829l4.124-3.177-4.665 2.692a.5.5 0 0 1 -.559-.826l2.64-2.065-2.146 1.238a.5.5 0 0 1 -.564-.821l.956-.773-.392.226a.5.5 0 0 1 -.684-.68l1.035-1.825-.066.037a.5.5 0 0 1 -.5-.865l1.657-.956a.5.5 0 0 1 .684.679l-1.034 1.821 4.341-2.5a.5.5 0 0 1 .564.821l-.959.775 2.766-1.6a.5.5 0 0 1 .559.826l-2.643 2.068 5.013-2.89a.5.5 0 0 1 .555.829l-4.123 3.171 5.779-3.336a.5.5 0 0 1 .56.824l-3.856 3.063 3.792-2.189a.5.5 0 0 1 .586.8l-2.673 2.418 2.087-1.205a.5.5 0 0 1 .58.808l-.4.355a.51.51 0 0 1 .456.172.5.5 0 0 1 0 .643l-.488.585a.49.49 0 0 1 .25.216.5.5 0 0 1 -.182.682l-1.655.956a.5.5 0 0 1 -.633-.753l.14-.168-1.6.923a.5.5 0 0 1 -.581-.807l.269-.238-1.813 1.051a.5.5 0 0 1 -.585-.8l2.671-2.418-5.58 3.218a.493.493 0 0 1 -.25.07z" fill="#5498c8"/><g fill="#bfdbf0"><path d="m36.431 38.939a.5.5 0 0 1 -.431-.751l.7-1.209-3.09 1.784a.5.5 0 0 1 -.5-.866l4.722-2.725a.5.5 0 0 1 .682.684l-.743 1.272a.5.5 0 0 1 .32.928l-1.414.816a.489.489 0 0 1 -.246.067z"/><path d="m34.687 32.392a.5.5 0 0 1 -.37-.837l1.789-1.961-.817.471a.5.5 0 0 1 -.645-.739l1.371-1.766-1.2.692a.5.5 0 0 1 -.628-.759l2-2.316-2.573 1.484a.5.5 0 0 1 -.609-.78l1.616-1.673-2.589 1.492a.5.5 0 0 1 -.647-.736l.928-1.217-2.97 1.715a.5.5 0 1 1 -.5-.865l5.132-2.963a.5.5 0 0 1 .647.736l-.929 1.217 3.507-2.024a.5.5 0 0 1 .61.78l-1.617 1.673 2.048-1.182a.5.5 0 0 1 .629.759l-2 2.317.849-.489a.5.5 0 0 1 .645.739l-1.364 1.766 1.405-.812a.5.5 0 0 1 .62.77l-1.79 1.961 2.979-1.72a.5.5 0 1 1 .5.865l-5.773 3.334a.5.5 0 0 1 -.254.068z"/><path d="m28.513 20.154a.5.5 0 0 1 -.251-.932l1.013-.585a.5.5 0 1 1 .5.865l-1.013.585a.488.488 0 0 1 -.249.067z"/><path d="m29.493 41.429a.5.5 0 0 1 -.3-.9l1.247-.924-1.75 1.009a.5.5 0 0 1 -.545-.837l4.845-3.535-5 2.887a.5.5 0 0 1 -.606-.783l1.243-1.266-2.4 1.388a.5.5 0 0 1 -.649-.736l.952-1.253-3.6 2.077a.5.5 0 0 1 -.592-.8l1.148-1.073-1.524.879a.5.5 0 0 1 -.594-.8l1.206-1.144-.326.189a.5.5 0 0 1 -.647-.737l1.6-2.094-1.3.752a.5.5 0 0 1 -.636-.751l1.585-1.915-2.078 1.2a.5.5 0 0 1 -.588-.8l2.612-2.392-3.461 2a.5.5 0 0 1 -.537-.841l3.963-2.779-3.389 1.95a.5.5 0 0 1 -.543-.838l4.621-3.344-.9.516a.5.5 0 0 1 -.639-.746l.9-1.112-.846.487a.5.5 0 0 1 -.643-.741l.617-.789a.5.5 0 0 1 -.223-.2.5.5 0 0 1 .183-.683l1.422-.821a.5.5 0 0 1 .644.741l-.268.342.935-.539a.5.5 0 0 1 .639.746l-.9 1.112 6.984-4.031a.5.5 0 0 1 .543.838l-4.622 3.346 4.824-2.784a.5.5 0 0 1 .537.842l-5.927 4.158a.5.5 0 0 1 .128.824l-2.615 2.394.53-.3a.5.5 0 0 1 .636.751l-1.589 1.909 1.061-.613a.5.5 0 0 1 .626.1.5.5 0 0 1 .022.634l-1.6 2.093 1.826-1.053a.5.5 0 0 1 .594.8l-1.203 1.141 1.632-.941a.5.5 0 0 1 .592.8l-1.15 1.071 1.973-1.139a.5.5 0 0 1 .649.735l-.952 1.254 3.439-1.985a.5.5 0 0 1 .606.783l-1.244 1.266 9.916-5.724a.5.5 0 0 1 .545.837l-4.845 3.535 1.207-.7a.5.5 0 0 1 .548.834l-5.771 4.28a.5.5 0 0 1 -.237.548l-2.292 1.323a.489.489 0 0 1 -.249.072z"/></g><path d="m59.724 28.354c.263-1.983-1.568-3.017-3.351-2.762a26.142 26.142 0 0 0 -2.314-7.254c1.2-1.278.478-3.288.666-4.881.376-3.653-3.991-2.6-6.3-2.728a26.517 26.517 0 0 0 -10.65-6.117c.95-5.777-5.693-3.847-9.214-4.139-3.31-.282-7.061-.067-6.295 4.313a27.313 27.313 0 0 0 -10.306 5.849c-2.457.014-6.889-.663-6.684 3.012.2 1.629-.559 3.724.642 5.033a26.491 26.491 0 0 0 -2.255 7.02c-3.181-.124-3.685 2.61-3.387 5.245-.468 2.255 1.157 3.692 3.331 3.355a26.512 26.512 0 0 0 2.313 7.3c-.9.905-.6 2.348-.644 3.522-.706 5.049 2.807 4.316 6.472 4.258a26.3 26.3 0 0 0 10.524 5.886c-.515 3.519 1.43 4.54 4.66 4.08 3.631-.509 11.6 2.077 10.8-4a27.285 27.285 0 0 0 10.423-5.975c2.283-.057 6.208.718 6.568-2.477-.192-1.769.591-4.111-.64-5.549a26.519 26.519 0 0 0 2.239-6.945c3.692.335 3.578-3.4 3.402-6.046zm-4.875-2.754h-2.542a22.325 22.325 0 0 0 -2.3-6.329 9.488 9.488 0 0 0 2.752-.2 26.1 26.1 0 0 1 2.09 6.529zm-10.434 7.33c1.168 2.371 4.3 1.192 6.407 1.47a21.564 21.564 0 0 1 -2.306 6.225c-3.686.144-10.372-1.382-9.24 4.5 0 1.324-.208 2.956.9 3.777-3.872 2.572-8.5 1.588-12.882 1.75a11.246 11.246 0 0 1 -7.656-1.881c1.322-.8 1.1-2.483 1.083-3.826 1.219-5.934-5.488-4.072-9.138-4.327a22.03 22.03 0 0 1 -2.374-6.318c5.266.308 7.131-.225 6.515-5.949.268-3.7-4.264-2.469-6.6-2.657a22.016 22.016 0 0 1 2.291-6.332c3.155-.353 9.856 1.589 9.31-3.555-.163-1.55.536-3.578-.871-4.69 4.761-3.04 10.608-.894 15.9-1.741a21.46 21.46 0 0 1 4.638 1.974c-1.492.777-1.064 3.093-1.117 4.592-.732 5.158 6.02 2.841 9.088 3.326a22.212 22.212 0 0 1 2.406 6.332c-6.362-.692-7.152 1.511-6.354 7.33zm-37.228 7.9a25.68 25.68 0 0 1 -2.056-6.53h2.54a22.02 22.02 0 0 0 2.259 6.311 8.472 8.472 0 0 0 -2.743.218zm1.55-21.464h1.387a21.984 21.984 0 0 0 -2.368 6.334c-.908.009-1.683-.017-2.673-.038a25.877 25.877 0 0 1 1.95-6.42 8.031 8.031 0 0 0 1.704.123zm42.521-8.094c2.988-.038 2.111 5.041 1.725 6.93-.266.112-.453.286-.389.467a24.854 24.854 0 0 1 -4.058.061c-6.909-.351-9.114 1.224-7.408-7.083a.9.9 0 0 0 .814-.375q2.532 0 5.065-.013a.913.913 0 0 0 1.221 0c1.01 0 2.02-.002 3.03.012zm-5.288-.542a24.7 24.7 0 0 0 -4.02.088 19.328 19.328 0 0 0 -4.885-2.258 3.493 3.493 0 0 0 .67-2.778 25.55 25.55 0 0 1 8.665 4.947zm-22.236-5.03c-.009-2.65-.549-4.808 3.032-4.168 2.839.513 7.3-1.171 9.37.93.042 1.492.937 5.742-1.07 6.016-3.448-.105-6.96.205-10.381-.1-1.002-.391-.957-1.699-.951-2.678zm-1.468-.1c.024 1.025-.183 2.229.579 3.044a22.727 22.727 0 0 0 -4.414 2.009c-1.688-.053-3.337.009-5.019-.013a24.978 24.978 0 0 1 8.854-5.04zm-15.191 6.178c.509-.673 1.719-.413 2.462-.413 2.826.106 5.7-.184 8.521.106 1.153.391 1.334 1.611 1.217 2.719-.23 1.339.69 3.921-.981 4.446-3.3-.018-6.6.027-9.9 0-2.442-.003-1.84-5.346-1.319-6.858zm-5.241 20.677c.066-1.823-1.234-6.643 1.839-6.155 2.991.587 8.105-1.273 10.388.987.47 1.358.107 2.886.215 4.3.441 3.207-3.3 1.838-5.259 2.1-1.225-.107-4.2-.017-5.194 0a1.883 1.883 0 0 1 -1.989-1.232zm6.5 16.163c-2.434-.135-1.65-5.058-1.362-6.684a.645.645 0 0 0 .406-.437c3.375-.32 6.906-.011 10.333-.115 1.888.09 1.565 2.465 1.565 3.742 0 .933.358 3.316-1 3.494-3.302.043-6.639-.001-9.946 0zm6.788.764a17.2 17.2 0 0 0 3.25-.076 22.344 22.344 0 0 0 4.84 2.063c-.951.664-1 1.906-.932 2.986a26.009 26.009 0 0 1 -8.612-4.973zm20.17 9.27c-3.292.045-6.625-.006-9.927 0-1.7-.1-1.637-1.854-1.637-3.095.169-1.323-.486-3.089.633-4.082a82.422 82.422 0 0 1 10.843 0c1.273.611 1.074 2.36 1.08 3.664.025 1.083.302 3.319-.996 3.513zm2.445-4.381c.006-.988.136-2.221-.652-2.925a23.518 23.518 0 0 0 4.383-1.979c1.693.119 3.315-.047 4.987.008a25.048 25.048 0 0 1 -8.722 4.896zm14.542-5.646c-1.3.123-2.649-.051-3.957 0-1.969-.271-4.316.31-6.392-.086-1.868-.786-1.012-3.545-1.2-5.233-.327-3.51 5.556-1.387 7.757-1.931 3.377.089 5.2-.742 4.794 3.75-.005.931.353 3.322-1.006 3.5zm.691-7.889a16.874 16.874 0 0 0 -3.01-.111 22.468 22.468 0 0 0 2.3-6.225h2.64a25.7 25.7 0 0 1 -1.934 6.336zm5.31-11.546c-.229 1.333.69 3.9-.991 4.41-3.3-.029-6.577.014-9.895 0-2.4.109-1.86-5.379-1.31-6.8 1.314-.96 3.4-.161 4.961-.4 2.421.458 7.899-1.537 7.231 2.79z" fill="#262626"/><path d="m40.55 27.954c-1.246-.124-1.356-1.073-1.7-2.144-.61-.778.06-1.354.291-2.121.354-2.18-2.527-3.208-4.24-1.949-.939-.45-2.171-.5-2.387-1.706-.35-.876-.557-1.351-1.594-1.411a2.89 2.89 0 0 0 -3.723 2.432 11.878 11.878 0 0 0 -1.661.678 2.855 2.855 0 0 0 -4.152.66c-.794.843-.678 1.207-.27 2.163.838 1.106-.39 2-.546 3.127-1.282.405-2.526.924-2.287 2.511.008.714-.04 1.255.62 1.631.945.338 1.863.435 1.948 1.661.809 1.149.742 1.665.02 2.825-.378 2.247 2.581 3.334 4.25 1.954.937.445 2.162.5 2.377 1.7.35.876.557 1.351 1.594 1.411a2.89 2.89 0 0 0 3.723-2.432 11.878 11.878 0 0 0 1.661-.678 2.855 2.855 0 0 0 4.152-.66c.794-.843.678-1.207.27-2.163-.838-1.106.39-2 .546-3.126 1.365-.395 2.574-1.034 2.285-2.669a1.466 1.466 0 0 0 -1.177-1.694zm-.389 3.284c-.3.324-1.14.427-1.545.617-.685.321-.637.842-.908 1.532-.28.714-.792 1.119-.532 1.822.692 1.124.827 2.066-.4 2.867-.971-.225-1.5-.98-2.557-.522-.864.5-1.912.671-2.715 1.225-.645.911-.255 2.336-1.849 1.809-.58-.182-.7-.976-.916-1.506-.317-.792-.589-.656-1.454-.992-.822-.319-1.37-.9-2.262-.606-.417.135-1.1.677-1.522.65.035 0-.176.08-.182.077.12-.726-1.318-1.024-1.089-1.911.9-1.6.679-2.315-.191-3.937-.213-.634-.514-.631-1.132-.878-.948-.379-1.172-.558-1.186-1.679a1.061 1.061 0 0 1 .99-1.393 1.857 1.857 0 0 0 1.578-1.8c.152-.382.643-.987.679-1.376-.344-1.354-1.375-2.214.251-3.31 1.615 1.174 3.082.364 4.691-.369.968-.224.8-1.691 1.406-2.169 1.724-.393 1.511.979 2.135 2.021 1.206.39 2.548 1.6 3.842.969.308-.129.987-.59 1.31-.56a4.637 4.637 0 0 0 .607.794c1.615 1.435-1.148 2.33.494 4.29.367 2.572 3.49.654 2.457 4.335z" fill="#262626"/><path d="m32.009 24.92c-9.127-2.27-10.736 11.756-.955 10.212 5.373-.782 6.392-8.686.955-10.212zm-.592 9.625c-6.71 1.8-7.769-10.515-.66-9.078 4.186 1.033 4.78 7.555.66 9.078z" fill="#262626"/></svg>